<?xml version="1.0" encoding="UTF-8" standalone="no"?>
<svg
   xmlns:dc="http://purl.org/dc/elements/1.1/"
   xmlns:cc="http://creativecommons.org/ns#"
   xmlns:rdf="http://www.w3.org/1999/02/22-rdf-syntax-ns#"
   xmlns:svg="http://www.w3.org/2000/svg"
   xmlns="http://www.w3.org/2000/svg"
   xmlns:sodipodi="http://sodipodi.sourceforge.net/DTD/sodipodi-0.dtd"
   xmlns:inkscape="http://www.inkscape.org/namespaces/inkscape"
   width="427mm"
   height="257mm"
   viewBox="0 0 427 257"
   version="1.1"
   preserveAspectRatio="xMidYMid meet"
   id="svg91"
   sodipodi:docname="box (1).svg"
   inkscape:version="1.0.2-2 (e86c870879, 2021-01-15)">
  <metadata
     id="metadata97">
    <rdf:RDF>
      <cc:Work
         rdf:about="">
        <dc:format>image/svg+xml</dc:format>
        <dc:type
           rdf:resource="http://purl.org/dc/dcmitype/StillImage" />
      </cc:Work>
    </rdf:RDF>
  </metadata>
  <defs
     id="defs95" />
  <sodipodi:namedview
     pagecolor="#ffffff"
     bordercolor="#666666"
     borderopacity="1"
     objecttolerance="10"
     gridtolerance="10"
     guidetolerance="10"
     inkscape:pageopacity="0"
     inkscape:pageshadow="2"
     inkscape:window-width="1920"
     inkscape:window-height="1017"
     id="namedview93"
     showgrid="false"
     inkscape:zoom="1.4619001"
     inkscape:cx="699.21808"
     inkscape:cy="688.89601"
     inkscape:window-x="1592"
     inkscape:window-y="-8"
     inkscape:window-maximized="1"
     inkscape:current-layer="svg91"
     inkscape:document-rotation="0" />
  <g
     id="svgGroup"
     stroke-linecap="round"
     fill-rule="evenodd"
     font-size="9pt"
     stroke="#000"
     stroke-width="0.25mm"
     fill="none"
     style="stroke:#000;stroke-width:0.25mm;fill:none">
    <path
       d="m -0.06398819,130.12798 v 11 H 5.9360118 v 15 h -5.99999999 v 15 H 5.9360118 v 15 h -5.99999999 v 15 H 5.9360118 v 15 h -5.99999999 v 15 H 5.9360118 v 15 h -5.99999999 v 11 H 20.936012 v -6 h 15 v 6 h 15 v -6 h 15 v 6 h 15 v -6 h 15 v 6 h 14.999998 v -6 h 15 v 6 h 15 v -6 h 15 v 6 h 15 6 v -11 h -6 v -15 h 6 v -15 h -6 v -15 h 6 v -15 h -6 v -15 h 6 v -15 h -6 v -15 h 6 v -11 h -21 v 6 h -15 v -6 h -15 v 6 h -15 v -6 H 95.936012 v 6 h -15 v -6 h -15 v 6 h -15 v -6 h -15 v 6 h -15 v -6 H 5.9360118 Z"
       id="front_outsideCutPath"
       stroke="#FF0000"
       stroke-width="0.1"
       style="stroke:#ff0000;stroke-width:0.1"
       vector-effect="non-scaling-stroke" />
    <path
       d="M 107.01 203.093 L 104.952 203.093 L 104.952 194.3 Q 104.952 192.638 104.195 191.819 A 2.321 2.321 0 0 0 103.243 191.212 Q 102.869 191.08 102.409 191.03 A 5.458 5.458 0 0 0 101.826 191.001 Q 100.421 191.001 99.511 191.501 A 2.903 2.903 0 0 0 98.701 192.154 A 3.366 3.366 0 0 0 98.116 193.177 Q 97.709 194.261 97.709 195.962 L 97.709 203.093 L 95.65 203.093 L 95.65 189.5 L 97.324 189.5 L 97.659 191.36 L 97.758 191.36 A 4.169 4.169 0 0 1 99.391 189.875 A 5.013 5.013 0 0 1 99.532 189.804 A 5.575 5.575 0 0 1 101.516 189.275 A 6.741 6.741 0 0 1 102.074 189.252 Q 103.703 189.252 104.797 189.773 A 3.7 3.7 0 0 1 105.77 190.436 A 3.568 3.568 0 0 1 106.64 191.801 Q 106.848 192.364 106.94 193.06 A 8.985 8.985 0 0 1 107.01 194.225 L 107.01 203.093 Z M 67.459 189.5 L 67.459 191.1 L 63.999 191.1 L 63.999 203.093 L 61.94 203.093 L 61.94 191.1 L 59.51 191.1 L 59.51 190.17 L 61.94 189.426 L 61.94 188.669 A 8.344 8.344 0 0 1 62.135 186.778 Q 62.864 183.658 66.318 183.658 A 6.63 6.63 0 0 1 67.257 183.73 Q 67.713 183.796 68.221 183.921 A 13.328 13.328 0 0 1 68.848 184.093 L 68.315 185.742 A 9.997 9.997 0 0 0 67.538 185.523 Q 67.145 185.431 66.799 185.39 A 4.428 4.428 0 0 0 66.281 185.358 A 2.776 2.776 0 0 0 65.612 185.433 A 1.783 1.783 0 0 0 64.557 186.133 Q 64.051 186.836 64.004 188.31 A 9.72 9.72 0 0 0 63.999 188.619 L 63.999 189.5 L 67.459 189.5 Z M 117.49 201.394 L 117.49 202.969 Q 117.156 203.13 116.504 203.236 Q 115.853 203.341 115.332 203.341 A 5.377 5.377 0 0 1 113.748 203.128 Q 112.006 202.59 111.55 200.698 A 6.471 6.471 0 0 1 111.389 199.186 L 111.389 191.1 L 109.441 191.1 L 109.441 190.108 L 111.389 189.252 L 112.257 186.35 L 113.447 186.35 L 113.447 189.5 L 117.391 189.5 L 117.391 191.1 L 113.447 191.1 L 113.447 199.099 A 4.146 4.146 0 0 0 113.507 199.827 Q 113.634 200.538 114.03 200.985 A 1.913 1.913 0 0 0 115.206 201.61 A 2.752 2.752 0 0 0 115.63 201.642 A 6.761 6.761 0 0 0 116.621 201.571 A 6.227 6.227 0 0 0 116.684 201.561 A 11.137 11.137 0 0 0 116.982 201.51 Q 117.266 201.457 117.463 201.402 A 3.087 3.087 0 0 0 117.49 201.394 Z M 77.766 189.401 L 77.481 191.311 A 9.074 9.074 0 0 0 76.828 191.19 Q 76.375 191.125 75.992 191.125 A 3.567 3.567 0 0 0 73.357 192.263 A 4.88 4.88 0 0 0 73.171 192.464 A 4.701 4.701 0 0 0 72.037 195.104 A 6.249 6.249 0 0 0 71.999 195.8 L 71.999 203.093 L 69.94 203.093 L 69.94 189.5 L 71.639 189.5 L 71.875 192.018 L 71.974 192.018 Q 72.73 190.691 73.797 189.971 Q 74.864 189.252 76.141 189.252 A 9.452 9.452 0 0 1 76.987 189.288 A 6.898 6.898 0 0 1 77.766 189.401 Z M 91.852 198.353 A 10.634 10.634 0 0 0 92.041 196.284 A 12.082 12.082 0 0 0 92.036 195.957 Q 91.955 192.95 90.36 191.149 A 5.39 5.39 0 0 0 87.858 189.536 A 6.918 6.918 0 0 0 85.827 189.252 A 7.996 7.996 0 0 0 84.391 189.375 A 5.446 5.446 0 0 0 81.214 191.106 Q 80.11 192.337 79.739 194.217 A 10.69 10.69 0 0 0 79.552 196.284 A 10.299 10.299 0 0 0 79.681 197.952 A 7.616 7.616 0 0 0 80.321 200.03 A 6.767 6.767 0 0 0 80.47 200.323 A 5.574 5.574 0 0 0 82.503 202.485 A 5.733 5.733 0 0 0 83.819 203.07 A 6.611 6.611 0 0 0 85.74 203.341 A 7.994 7.994 0 0 0 87.137 203.224 A 5.489 5.489 0 0 0 90.367 201.474 A 5.743 5.743 0 0 0 91.05 200.535 Q 91.608 199.581 91.852 198.353 Z M 82.124 199.142 A 4.319 4.319 0 0 0 82.727 200.253 A 3.374 3.374 0 0 0 84.924 201.547 A 5.113 5.113 0 0 0 85.79 201.617 A 4.782 4.782 0 0 0 87.052 201.46 A 3.328 3.328 0 0 0 88.86 200.259 Q 89.639 199.249 89.839 197.543 A 10.845 10.845 0 0 0 89.908 196.284 A 10.272 10.272 0 0 0 89.81 194.82 Q 89.703 194.075 89.476 193.471 A 4.239 4.239 0 0 0 88.86 192.346 A 3.387 3.387 0 0 0 86.754 191.09 A 5.193 5.193 0 0 0 85.765 191.001 A 4.9 4.9 0 0 0 84.545 191.144 A 3.279 3.279 0 0 0 82.714 192.328 Q 81.685 193.655 81.685 196.284 Q 81.685 197.974 82.124 199.142 Z"
       id="front_labelLayer"
       stroke="#777777"
       fill="#777777"
       style="stroke:#777777;fill:#777777"
       vector-effect="non-scaling-stroke" />
    <path
       d="M 186 130 L 186 141 L 180 141 L 180 156 L 186 156 L 186 171 L 180 171 L 180 186 L 186 186 L 186 201 L 180 201 L 180 216 L 186 216 L 186 231 L 180 231 L 180 246 L 186 246 L 186 257 L 191 257 L 191 251 L 206 251 L 206 257 L 221 257 L 221 251 L 236 251 L 236 257 L 241 257 L 241 246 L 247 246 L 247 231 L 241 231 L 241 216 L 247 216 L 247 201 L 241 201 L 241 186 L 247 186 L 247 171 L 241 171 L 241 156 L 247 156 L 247 141 L 241 141 L 241 130 L 236 130 L 236 136 L 221 136 L 221 130 L 206 130 L 206 136 L 191 136 L 191 130 L 186 130 Z"
       id="left_outsideCutPath"
       stroke="#FF0000"
       stroke-width="0.1"
       style="stroke:#FF0000;stroke-width:0.1"
       vector-effect="non-scaling-stroke" />
    <path
       d="M 218.267 191.39 L 218.267 192.234 L 216.441 192.234 L 216.441 198.561 L 215.355 198.561 L 215.355 192.234 L 214.073 192.234 L 214.073 191.743 L 215.355 191.35 L 215.355 190.951 Q 215.355 188.308 217.665 188.308 Q 218.107 188.308 218.668 188.446 A 7.031 7.031 0 0 1 218.999 188.537 L 218.718 189.407 A 5.274 5.274 0 0 0 218.308 189.292 Q 218.101 189.243 217.918 189.221 A 2.336 2.336 0 0 0 217.645 189.204 A 1.465 1.465 0 0 0 217.292 189.244 A 0.941 0.941 0 0 0 216.735 189.613 A 1.257 1.257 0 0 0 216.569 189.948 Q 216.459 190.276 216.444 190.762 A 5.128 5.128 0 0 0 216.441 190.925 L 216.441 191.39 L 218.267 191.39 Z M 213.183 194.485 L 213.183 195.172 L 208.243 195.172 A 4.359 4.359 0 0 0 208.319 195.901 Q 208.398 196.299 208.555 196.613 A 2.039 2.039 0 0 0 208.881 197.089 A 1.974 1.974 0 0 0 209.917 197.673 A 2.99 2.99 0 0 0 210.585 197.743 A 5.736 5.736 0 0 0 212.734 197.317 A 6.574 6.574 0 0 0 212.875 197.259 L 212.875 198.227 A 6.52 6.52 0 0 1 212.281 198.452 A 4.986 4.986 0 0 1 211.786 198.584 Q 211.386 198.668 210.859 198.686 A 8.849 8.849 0 0 1 210.546 198.692 Q 208.956 198.692 208.037 197.723 A 3.196 3.196 0 0 1 207.272 196.319 Q 207.139 195.821 207.12 195.23 A 6.205 6.205 0 0 1 207.117 195.034 A 5.703 5.703 0 0 1 207.223 193.903 Q 207.362 193.216 207.685 192.681 A 3.216 3.216 0 0 1 207.971 192.28 Q 208.825 191.259 210.265 191.259 A 3.309 3.309 0 0 1 211.196 191.384 A 2.518 2.518 0 0 1 212.398 192.145 A 3.037 3.037 0 0 1 213.086 193.533 A 4.421 4.421 0 0 1 213.183 194.485 Z M 222.873 197.664 L 222.873 198.495 A 1.068 1.068 0 0 1 222.746 198.546 Q 222.611 198.591 222.417 198.625 A 4.062 4.062 0 0 1 222.353 198.636 Q 222.032 198.688 221.771 198.691 A 2.785 2.785 0 0 1 221.734 198.692 Q 219.654 198.692 219.654 196.5 L 219.654 192.234 L 218.626 192.234 L 218.626 191.71 L 219.654 191.259 L 220.112 189.728 L 220.74 189.728 L 220.74 191.39 L 222.82 191.39 L 222.82 192.234 L 220.74 192.234 L 220.74 196.454 A 2.187 2.187 0 0 0 220.771 196.838 Q 220.809 197.049 220.892 197.216 A 1.054 1.054 0 0 0 221.047 197.449 A 1.009 1.009 0 0 0 221.668 197.779 A 1.452 1.452 0 0 0 221.891 197.795 Q 222.179 197.795 222.448 197.753 A 5.875 5.875 0 0 0 222.604 197.726 Q 222.754 197.698 222.858 197.669 A 1.633 1.633 0 0 0 222.873 197.664 Z M 205.213 188.38 L 205.213 198.561 L 204.127 198.561 L 204.127 188.38 L 205.213 188.38 Z M 208.269 194.288 L 212.018 194.288 A 3.701 3.701 0 0 0 211.973 193.693 Q 211.921 193.374 211.808 193.119 A 1.68 1.68 0 0 0 211.56 192.715 A 1.488 1.488 0 0 0 210.664 192.205 A 2.232 2.232 0 0 0 210.251 192.168 A 2.141 2.141 0 0 0 209.633 192.253 A 1.654 1.654 0 0 0 208.874 192.731 A 2.146 2.146 0 0 0 208.448 193.451 Q 208.339 193.747 208.29 194.103 A 4.103 4.103 0 0 0 208.269 194.288 Z"
       id="left_labelLayer"
       stroke="#777777"
       fill="#777777"
       style="stroke:#777777;fill:#777777"
       vector-effect="non-scaling-stroke" />
    <path
       d="M 256 196 L 256 201 L 250 201 L 250 216 L 256 216 L 256 231 L 250 231 L 250 246 L 256 246 L 256 251 L 271 251 L 271 257 L 286 257 L 286 251 L 301 251 L 301 257 L 316 257 L 316 251 L 331 251 L 331 257 L 346 257 L 346 251 L 361 251 L 361 257 L 376 257 L 376 251 L 391 251 L 391 257 L 406 257 L 406 251 L 421 251 L 421 246 L 427 246 L 427 231 L 421 231 L 421 216 L 427 216 L 427 201 L 421 201 L 421 196 L 406 196 L 406 190 L 391 190 L 391 196 L 376 196 L 376 190 L 361 190 L 361 196 L 346 196 L 346 190 L 331 190 L 331 196 L 316 196 L 316 190 L 301 190 L 301 196 L 286 196 L 286 190 L 271 190 L 271 196 L 256 196 Z"
       id="top_outsideCutPath"
       stroke="#FF0000"
       stroke-width="0.1"
       style="stroke:#FF0000;stroke-width:0.1"
       vector-effect="non-scaling-stroke" />
    <path
       d="M 343.316 225.384 L 343.237 225.384 A 10.279 10.279 0 0 1 343.305 226.144 A 8.613 8.613 0 0 1 343.316 226.575 L 343.316 229.526 L 342.229 229.526 L 342.229 219.136 L 343.113 219.136 L 343.263 220.117 L 343.316 220.117 A 2.924 2.924 0 0 1 343.738 219.637 A 2.261 2.261 0 0 1 344.29 219.267 A 2.72 2.72 0 0 1 345.07 219.039 A 3.521 3.521 0 0 1 345.566 219.005 A 3.329 3.329 0 0 1 346.507 219.131 A 2.461 2.461 0 0 1 347.768 219.98 A 3.261 3.261 0 0 1 348.325 221.066 Q 348.468 221.535 348.518 222.098 A 7.073 7.073 0 0 1 348.543 222.715 Q 348.543 224.481 347.755 225.46 A 2.571 2.571 0 0 1 345.927 226.421 A 3.684 3.684 0 0 1 345.566 226.438 A 3.294 3.294 0 0 1 344.739 226.337 A 2.867 2.867 0 0 1 344.287 226.179 A 2.406 2.406 0 0 1 343.316 225.384 Z M 332.703 225.411 L 332.703 226.242 A 1.068 1.068 0 0 1 332.576 226.292 Q 332.441 226.337 332.248 226.371 A 4.062 4.062 0 0 1 332.183 226.382 Q 331.862 226.434 331.601 226.438 A 2.785 2.785 0 0 1 331.564 226.438 Q 329.484 226.438 329.484 224.246 L 329.484 219.98 L 328.456 219.98 L 328.456 219.456 L 329.484 219.005 L 329.942 217.474 L 330.57 217.474 L 330.57 219.136 L 332.651 219.136 L 332.651 219.98 L 330.57 219.98 L 330.57 224.2 A 2.187 2.187 0 0 0 330.601 224.584 Q 330.639 224.795 330.722 224.962 A 1.054 1.054 0 0 0 330.877 225.195 A 1.009 1.009 0 0 0 331.498 225.525 A 1.452 1.452 0 0 0 331.721 225.541 Q 332.009 225.541 332.278 225.499 A 5.875 5.875 0 0 0 332.434 225.472 Q 332.584 225.444 332.688 225.415 A 1.633 1.633 0 0 0 332.703 225.411 Z M 340.325 222.715 Q 340.325 224.468 339.442 225.453 Q 338.559 226.438 337.002 226.438 A 3.488 3.488 0 0 1 335.988 226.295 A 3.024 3.024 0 0 1 335.294 225.986 A 2.94 2.94 0 0 1 334.221 224.846 A 3.57 3.57 0 0 1 334.142 224.691 A 4.018 4.018 0 0 1 333.805 223.595 A 5.433 5.433 0 0 1 333.737 222.715 A 5.639 5.639 0 0 1 333.836 221.624 Q 334.031 220.633 334.613 219.983 A 2.873 2.873 0 0 1 336.29 219.07 A 4.218 4.218 0 0 1 337.047 219.005 A 3.65 3.65 0 0 1 338.119 219.155 A 2.843 2.843 0 0 1 339.439 220.006 A 3.382 3.382 0 0 1 340.178 221.438 Q 340.307 221.945 340.323 222.542 A 6.374 6.374 0 0 1 340.325 222.715 Z M 334.862 222.715 A 5.5 5.5 0 0 0 334.914 223.501 Q 334.972 223.899 335.093 224.223 A 2.279 2.279 0 0 0 335.412 224.809 Q 335.961 225.528 337.028 225.528 A 2.523 2.523 0 0 0 337.693 225.446 A 1.756 1.756 0 0 0 338.647 224.812 Q 339.058 224.279 339.164 223.379 A 5.721 5.721 0 0 0 339.2 222.715 Q 339.2 221.347 338.647 220.637 A 1.787 1.787 0 0 0 337.536 219.975 A 2.739 2.739 0 0 0 337.015 219.928 A 2.585 2.585 0 0 0 336.371 220.003 A 1.73 1.73 0 0 0 335.405 220.628 A 2.246 2.246 0 0 0 335.056 221.302 Q 334.953 221.612 334.905 221.992 A 5.739 5.739 0 0 0 334.862 222.715 Z M 343.316 222.473 L 343.316 222.715 Q 343.316 223.999 343.679 224.662 A 1.638 1.638 0 0 0 343.819 224.877 Q 344.323 225.528 345.435 225.528 Q 346.365 225.528 346.891 224.776 Q 347.307 224.182 347.395 223.234 A 5.786 5.786 0 0 0 347.418 222.702 A 5.481 5.481 0 0 0 347.367 221.924 Q 347.31 221.531 347.191 221.21 A 2.303 2.303 0 0 0 346.891 220.644 A 1.69 1.69 0 0 0 345.656 219.94 A 2.337 2.337 0 0 0 345.409 219.928 Q 344.31 219.928 343.819 220.536 Q 343.329 221.145 343.316 222.473 Z"
       id="top_labelLayer"
       stroke="#777777"
       fill="#777777"
       style="stroke:#777777;fill:#777777"
       vector-effect="non-scaling-stroke" />
    <path
       d="M 0 0 L 0 11 L 6 11 L 6 26 L 0 26 L 0 41 L 6 41 L 6 56 L 0 56 L 0 71 L 6 71 L 6 86 L 0 86 L 0 101 L 6 101 L 6 116 L 0 116 L 0 127 L 21 127 L 21 121 L 36 121 L 36 127 L 51 127 L 51 121 L 66 121 L 66 127 L 81 127 L 81 121 L 96 121 L 96 127 L 111 127 L 111 121 L 126 121 L 126 127 L 141 127 L 141 121 L 156 121 L 156 127 L 171 127 L 177 127 L 177 116 L 171 116 L 171 101 L 177 101 L 177 86 L 171 86 L 171 71 L 177 71 L 177 56 L 171 56 L 171 41 L 177 41 L 177 26 L 171 26 L 171 11 L 177 11 L 177 0 L 156 0 L 156 6 L 141 6 L 141 0 L 126 0 L 126 6 L 111 6 L 111 0 L 96 0 L 96 6 L 81 6 L 81 0 L 66 0 L 66 6 L 51 6 L 51 0 L 36 0 L 36 6 L 21 6 L 21 0 L 6 0 L 0 0 Z"
       id="back_outsideCutPath"
       stroke="#FF0000"
       stroke-width="0.1"
       style="stroke:#FF0000;stroke-width:0.1"
       vector-effect="non-scaling-stroke" />
    <path
       d="M 105.888 66.067 L 105.987 66.067 A 12.188 12.188 0 0 1 106.289 65.659 Q 106.636 65.209 107.131 64.632 A 44.238 44.238 0 0 1 107.612 64.083 L 112.002 59.432 L 114.446 59.432 L 108.939 65.224 L 114.83 73.025 L 112.337 73.025 L 107.538 66.6 L 105.987 67.94 L 105.987 73.025 L 103.953 73.025 L 103.953 53.727 L 105.987 53.727 L 105.987 63.959 A 13.719 13.719 0 0 1 105.981 64.346 Q 105.963 64.982 105.892 66.016 A 86.209 86.209 0 0 1 105.888 66.067 Z M 64.229 71.276 L 64.08 71.276 L 63.646 73.025 L 62.17 73.025 L 62.17 53.727 L 64.229 53.727 L 64.229 58.415 Q 64.229 59.939 64.136 61.162 A 25.663 25.663 0 0 1 64.129 61.243 L 64.229 61.243 A 4.681 4.681 0 0 1 67.645 59.258 A 7.032 7.032 0 0 1 68.495 59.209 A 6.292 6.292 0 0 1 70.266 59.445 A 4.71 4.71 0 0 1 72.656 61.038 Q 73.843 62.503 74.079 64.942 A 13.215 13.215 0 0 1 74.138 66.216 Q 74.138 69.565 72.644 71.419 A 4.874 4.874 0 0 1 69.18 73.24 A 6.983 6.983 0 0 1 68.495 73.273 A 6.245 6.245 0 0 1 66.926 73.082 A 5.434 5.434 0 0 1 66.07 72.783 A 4.56 4.56 0 0 1 64.229 71.276 Z M 87.619 73.025 L 86.094 73.025 L 85.685 71.09 L 85.585 71.09 A 8.535 8.535 0 0 1 84.895 71.863 Q 84.523 72.228 84.152 72.483 A 3.793 3.793 0 0 1 83.558 72.82 Q 82.725 73.193 81.55 73.259 A 9.265 9.265 0 0 1 81.034 73.273 Q 79.012 73.273 77.865 72.231 A 3.384 3.384 0 0 1 76.844 70.446 A 5.18 5.18 0 0 1 76.718 69.267 Q 76.718 65.282 82.885 64.968 A 20.111 20.111 0 0 1 83.303 64.951 L 85.61 64.877 L 85.61 64.033 A 5.913 5.913 0 0 0 85.553 63.178 Q 85.411 62.213 84.922 61.671 A 2.09 2.09 0 0 0 84.066 61.112 Q 83.723 60.988 83.299 60.939 A 5.087 5.087 0 0 0 82.721 60.908 A 6.703 6.703 0 0 0 81.178 61.1 Q 80.47 61.268 79.7 61.581 A 13.788 13.788 0 0 0 78.876 61.95 L 78.243 60.374 A 9.492 9.492 0 0 1 80.075 59.621 A 10.805 10.805 0 0 1 80.445 59.519 Q 81.642 59.209 82.845 59.209 Q 85.275 59.209 86.447 60.288 A 3.26 3.26 0 0 1 87.289 61.585 Q 87.485 62.118 87.565 62.781 A 8.101 8.101 0 0 1 87.619 63.748 L 87.619 73.025 Z M 100.927 59.891 L 100.295 61.64 Q 99.613 61.367 98.806 61.187 Q 98 61.007 97.38 61.007 Q 93.238 61.007 93.238 66.29 A 9.971 9.971 0 0 0 93.336 67.742 Q 93.445 68.478 93.673 69.076 A 4.27 4.27 0 0 0 94.248 70.135 A 3.27 3.27 0 0 0 96.367 71.401 A 4.981 4.981 0 0 0 97.244 71.475 A 8.618 8.618 0 0 0 99.621 71.129 A 10.641 10.641 0 0 0 100.729 70.743 L 100.729 72.566 Q 99.364 73.273 97.293 73.273 A 7.695 7.695 0 0 1 95.421 73.058 A 5.218 5.218 0 0 1 92.723 71.456 Q 91.104 69.639 91.104 66.315 A 11.36 11.36 0 0 1 91.28 64.25 Q 91.642 62.296 92.748 61.044 A 5.331 5.331 0 0 1 95.667 59.366 A 8.082 8.082 0 0 1 97.43 59.184 A 9.291 9.291 0 0 1 99.389 59.395 A 10.276 10.276 0 0 1 99.96 59.534 Q 100.534 59.692 100.915 59.884 A 3.072 3.072 0 0 1 100.927 59.891 Z M 68.197 60.933 A 5.785 5.785 0 0 0 67.077 61.034 Q 66.439 61.16 65.954 61.444 A 2.738 2.738 0 0 0 65.159 62.142 A 3.524 3.524 0 0 0 64.649 63.114 Q 64.304 64.078 64.242 65.545 A 15.862 15.862 0 0 0 64.229 66.216 Q 64.229 69.081 65.184 70.315 Q 66.139 71.549 68.247 71.549 A 4.104 4.104 0 0 0 69.413 71.393 A 2.961 2.961 0 0 0 71.075 70.166 A 4.726 4.726 0 0 0 71.659 68.901 Q 71.843 68.301 71.929 67.573 A 11.797 11.797 0 0 0 72.005 66.191 Q 72.005 63.537 71.075 62.235 A 3.002 3.002 0 0 0 69.163 61.025 A 4.762 4.762 0 0 0 68.197 60.933 Z M 85.561 67.568 L 85.561 66.34 L 83.502 66.427 A 15.117 15.117 0 0 0 82.294 66.514 Q 81.103 66.653 80.356 66.983 A 3.162 3.162 0 0 0 79.961 67.19 A 2.197 2.197 0 0 0 78.914 68.783 A 3.252 3.252 0 0 0 78.876 69.292 A 2.942 2.942 0 0 0 78.949 69.967 Q 79.071 70.486 79.398 70.842 A 1.834 1.834 0 0 0 79.552 70.991 A 2.241 2.241 0 0 0 80.391 71.437 Q 80.724 71.535 81.122 71.563 A 4.63 4.63 0 0 0 81.443 71.574 A 5.668 5.668 0 0 0 82.667 71.449 Q 83.52 71.261 84.15 70.787 A 3.437 3.437 0 0 0 84.463 70.52 Q 85.555 69.471 85.561 67.589 A 6.521 6.521 0 0 0 85.561 67.568 Z"
       id="back_labelLayer"
       stroke="#777777"
       fill="#777777"
       style="stroke:#777777;fill:#777777"
       vector-effect="non-scaling-stroke" />
    <path
       d="M 186 0 L 186 11 L 180 11 L 180 26 L 186 26 L 186 41 L 180 41 L 180 56 L 186 56 L 186 71 L 180 71 L 180 86 L 186 86 L 186 101 L 180 101 L 180 116 L 186 116 L 186 127 L 191 127 L 191 121 L 206 121 L 206 127 L 221 127 L 221 121 L 236 121 L 236 127 L 241 127 L 241 116 L 247 116 L 247 101 L 241 101 L 241 86 L 247 86 L 247 71 L 241 71 L 241 56 L 247 56 L 247 41 L 241 41 L 241 26 L 247 26 L 247 11 L 241 11 L 241 0 L 236 0 L 236 6 L 221 6 L 221 0 L 206 0 L 206 6 L 191 6 L 191 0 L 186 0 Z"
       id="right_outsideCutPath"
       stroke="#FF0000"
       stroke-width="0.1"
       style="stroke:#FF0000;stroke-width:0.1"
       vector-effect="non-scaling-stroke" />
    <path
       d="M 221.832 66.981 L 220.746 66.981 L 220.746 62.342 A 3.07 3.07 0 0 0 220.711 61.86 Q 220.671 61.607 220.584 61.405 A 1.292 1.292 0 0 0 220.347 61.033 A 1.225 1.225 0 0 0 219.845 60.713 Q 219.648 60.643 219.405 60.617 A 2.879 2.879 0 0 0 219.098 60.601 Q 218.358 60.601 217.88 60.864 A 1.521 1.521 0 0 0 217.445 61.216 A 1.807 1.807 0 0 0 217.139 61.76 Q 216.954 62.258 216.929 62.997 A 7.01 7.01 0 0 0 216.925 63.232 L 216.925 66.981 L 215.839 66.981 L 215.839 56.8 L 216.925 56.8 L 216.925 59.882 Q 216.925 60.282 216.898 60.584 A 4.249 4.249 0 0 1 216.873 60.804 L 216.938 60.804 Q 217.259 60.287 217.851 59.99 A 2.788 2.788 0 0 1 218.766 59.718 A 3.525 3.525 0 0 1 219.202 59.692 Q 220.067 59.692 220.648 59.962 A 1.958 1.958 0 0 1 221.175 60.317 A 1.891 1.891 0 0 1 221.641 61.049 Q 221.753 61.354 221.8 61.732 A 4.697 4.697 0 0 1 221.832 62.303 L 221.832 66.981 Z M 211.887 59.81 L 214.367 59.81 L 214.367 60.497 L 213.039 60.654 A 1.765 1.765 0 0 1 213.192 60.881 Q 213.285 61.045 213.366 61.252 A 2.09 2.09 0 0 1 213.49 61.752 A 2.683 2.683 0 0 1 213.51 62.087 A 2.49 2.49 0 0 1 213.396 62.859 A 2.014 2.014 0 0 1 212.79 63.768 Q 212.142 64.334 211.058 64.39 A 4.718 4.718 0 0 1 210.814 64.396 Q 210.494 64.396 210.212 64.344 A 1.933 1.933 0 0 0 209.901 64.546 Q 209.739 64.676 209.646 64.824 A 0.817 0.817 0 0 0 209.519 65.267 A 0.563 0.563 0 0 0 209.547 65.451 Q 209.599 65.602 209.746 65.693 A 0.603 0.603 0 0 0 209.761 65.702 Q 209.956 65.815 210.376 65.837 A 4.132 4.132 0 0 0 210.592 65.842 L 211.861 65.842 Q 212.638 65.842 213.174 66.061 A 1.963 1.963 0 0 1 213.65 66.333 A 1.589 1.589 0 0 1 214.241 67.345 A 2.386 2.386 0 0 1 214.275 67.759 A 2.352 2.352 0 0 1 214.141 68.573 Q 213.917 69.185 213.32 69.575 A 3.257 3.257 0 0 1 212.48 69.956 Q 211.678 70.2 210.533 70.2 Q 209.126 70.2 208.364 69.677 A 1.731 1.731 0 0 1 207.806 69.071 Q 207.602 68.692 207.602 68.198 A 1.661 1.661 0 0 1 208.02 67.066 A 1.897 1.897 0 0 1 208.672 66.591 A 2.688 2.688 0 0 1 209.198 66.418 A 1.127 1.127 0 0 1 208.76 66.064 A 1.339 1.339 0 0 1 208.737 66.032 A 1.007 1.007 0 0 1 208.552 65.488 A 1.247 1.247 0 0 1 208.55 65.424 A 1.242 1.242 0 0 1 208.613 65.024 A 1.101 1.101 0 0 1 208.76 64.737 A 1.555 1.555 0 0 1 208.965 64.505 Q 209.074 64.403 209.214 64.303 A 3.412 3.412 0 0 1 209.42 64.167 A 1.904 1.904 0 0 1 208.593 63.505 A 2.36 2.36 0 0 1 208.514 63.389 A 2.245 2.245 0 0 1 208.17 62.307 A 2.74 2.74 0 0 1 208.164 62.132 A 3.138 3.138 0 0 1 208.247 61.39 A 2.065 2.065 0 0 1 208.871 60.317 Q 209.481 59.766 210.531 59.691 A 4.797 4.797 0 0 1 210.873 59.679 A 4.163 4.163 0 0 1 211.424 59.714 A 3.171 3.171 0 0 1 211.887 59.81 Z M 227.361 66.084 L 227.361 66.915 A 1.068 1.068 0 0 1 227.235 66.966 Q 227.099 67.01 226.906 67.045 A 4.062 4.062 0 0 1 226.841 67.056 Q 226.52 67.108 226.26 67.111 A 2.785 2.785 0 0 1 226.223 67.112 Q 224.142 67.112 224.142 64.92 L 224.142 60.654 L 223.115 60.654 L 223.115 60.13 L 224.142 59.679 L 224.6 58.148 L 225.228 58.148 L 225.228 59.81 L 227.309 59.81 L 227.309 60.654 L 225.228 60.654 L 225.228 64.874 A 2.187 2.187 0 0 0 225.26 65.258 Q 225.297 65.469 225.38 65.636 A 1.054 1.054 0 0 0 225.536 65.869 A 1.009 1.009 0 0 0 226.156 66.199 A 1.452 1.452 0 0 0 226.38 66.215 Q 226.668 66.215 226.936 66.173 A 5.875 5.875 0 0 0 227.093 66.146 Q 227.243 66.118 227.347 66.089 A 1.633 1.633 0 0 0 227.361 66.084 Z M 203.767 59.757 L 203.617 60.765 A 4.787 4.787 0 0 0 203.273 60.701 Q 203.101 60.677 202.948 60.67 A 2.548 2.548 0 0 0 202.832 60.667 A 1.882 1.882 0 0 0 201.441 61.267 A 2.575 2.575 0 0 0 201.343 61.373 Q 200.725 62.08 200.725 63.134 L 200.725 66.981 L 199.639 66.981 L 199.639 59.81 L 200.535 59.81 L 200.659 61.138 L 200.712 61.138 A 3.668 3.668 0 0 1 201.122 60.552 A 2.802 2.802 0 0 1 201.674 60.058 Q 202.236 59.679 202.91 59.679 A 4.986 4.986 0 0 1 203.357 59.698 A 3.639 3.639 0 0 1 203.767 59.757 Z M 206.195 59.81 L 206.195 66.981 L 205.109 66.981 L 205.109 59.81 L 206.195 59.81 Z M 211.514 66.817 L 210.212 66.817 Q 209.671 66.817 209.305 67.007 A 1.272 1.272 0 0 0 209.061 67.171 Q 208.648 67.524 208.648 68.185 A 1.091 1.091 0 0 0 208.72 68.589 Q 208.824 68.85 209.075 69.026 A 1.274 1.274 0 0 0 209.139 69.068 A 1.739 1.739 0 0 0 209.567 69.251 Q 209.97 69.368 210.537 69.369 A 5.538 5.538 0 0 0 210.546 69.369 Q 211.767 69.369 212.423 69.043 A 1.804 1.804 0 0 0 212.571 68.96 A 1.584 1.584 0 0 0 212.938 68.652 A 1.187 1.187 0 0 0 213.228 67.851 A 1.47 1.47 0 0 0 213.202 67.559 Q 213.167 67.391 213.09 67.266 A 0.685 0.685 0 0 0 212.869 67.043 A 1.03 1.03 0 0 0 212.624 66.936 Q 212.237 66.817 211.514 66.817 Z M 209.237 62.106 A 2.12 2.12 0 0 0 209.281 62.551 Q 209.34 62.826 209.479 63.033 A 1.162 1.162 0 0 0 209.663 63.245 A 1.404 1.404 0 0 0 210.228 63.552 Q 210.503 63.631 210.847 63.631 Q 212.437 63.631 212.437 62.087 A 2.335 2.335 0 0 0 212.357 61.447 Q 212.078 60.471 210.827 60.471 A 2.279 2.279 0 0 0 210.363 60.515 Q 210.078 60.574 209.861 60.713 A 1.25 1.25 0 0 0 209.649 60.883 A 1.304 1.304 0 0 0 209.334 61.414 Q 209.267 61.62 209.247 61.87 A 2.857 2.857 0 0 0 209.237 62.106 Z M 205.032 57.668 A 1.204 1.204 0 0 0 205.017 57.866 A 1.282 1.282 0 0 0 205.023 57.989 Q 205.033 58.099 205.064 58.188 A 0.561 0.561 0 0 0 205.2 58.413 A 0.609 0.609 0 0 0 205.421 58.553 A 0.69 0.69 0 0 0 205.658 58.593 A 0.634 0.634 0 0 0 206.11 58.413 A 0.53 0.53 0 0 0 206.213 58.276 Q 206.299 58.113 206.299 57.866 Q 206.299 57.688 206.254 57.554 A 0.548 0.548 0 0 0 206.11 57.323 A 0.64 0.64 0 0 0 205.658 57.147 A 0.829 0.829 0 0 0 205.603 57.149 A 0.628 0.628 0 0 0 205.2 57.32 Q 205.07 57.443 205.032 57.668 Z"
       id="right_labelLayer"
       stroke="#777777"
       fill="#777777"
       style="stroke:#777777;fill:#777777"
       vector-effect="non-scaling-stroke" />
    <path
       d="M 256 126 L 256 131 L 250 131 L 250 146 L 256 146 L 256 161 L 250 161 L 250 176 L 256 176 L 256 181 L 271 181 L 271 187 L 286 187 L 286 181 L 301 181 L 301 187 L 316 187 L 316 181 L 331 181 L 331 187 L 346 187 L 346 181 L 361 181 L 361 187 L 376 187 L 376 181 L 391 181 L 391 187 L 406 187 L 406 181 L 421 181 L 421 176 L 427 176 L 427 161 L 421 161 L 421 146 L 427 146 L 427 131 L 421 131 L 421 126 L 406 126 L 406 120 L 391 120 L 391 126 L 376 126 L 376 120 L 361 120 L 361 126 L 346 126 L 346 120 L 331 120 L 331 126 L 316 126 L 316 120 L 301 120 L 301 126 L 286 126 L 286 120 L 271 120 L 271 126 L 256 126 Z"
       id="bottom_outsideCutPath"
       stroke="#FF0000"
       stroke-width="0.1"
       style="stroke:#FF0000;stroke-width:0.1"
       vector-effect="non-scaling-stroke" />
    <path
       d="M 360.543 158.525 L 359.457 158.525 L 359.457 153.86 A 3.204 3.204 0 0 0 359.425 153.389 Q 359.348 152.875 359.091 152.574 A 1.143 1.143 0 0 0 358.559 152.23 Q 358.37 152.169 358.139 152.152 A 2.521 2.521 0 0 0 357.952 152.145 Q 357.241 152.145 356.79 152.432 A 1.438 1.438 0 0 0 356.454 152.728 A 1.795 1.795 0 0 0 356.149 153.279 Q 355.971 153.779 355.97 154.509 A 5.972 5.972 0 0 0 355.97 154.521 L 355.97 158.525 L 354.884 158.525 L 354.884 153.86 A 3.204 3.204 0 0 0 354.851 153.389 Q 354.775 152.875 354.517 152.574 Q 354.2 152.203 353.574 152.153 A 2.543 2.543 0 0 0 353.372 152.145 A 2.698 2.698 0 0 0 352.814 152.199 Q 352.211 152.327 351.877 152.757 Q 351.403 153.369 351.403 154.763 L 351.403 158.525 L 350.317 158.525 L 350.317 151.354 L 351.2 151.354 L 351.377 152.335 L 351.429 152.335 A 2.135 2.135 0 0 1 352.296 151.517 A 2.579 2.579 0 0 1 353.314 151.232 A 3.114 3.114 0 0 1 353.549 151.223 A 3.556 3.556 0 0 1 354.349 151.306 Q 354.842 151.42 355.185 151.69 A 1.854 1.854 0 0 1 355.747 152.44 L 355.8 152.44 A 2.268 2.268 0 0 1 356.654 151.592 A 2.725 2.725 0 0 1 356.729 151.55 A 2.749 2.749 0 0 1 357.737 151.243 A 3.428 3.428 0 0 1 358.116 151.223 A 3.775 3.775 0 0 1 358.801 151.281 Q 359.181 151.351 359.478 151.507 A 1.79 1.79 0 0 1 359.938 151.848 Q 360.379 152.303 360.498 153.155 A 4.982 4.982 0 0 1 360.543 153.847 L 360.543 158.525 Z M 317.543 157.602 L 317.464 157.602 L 317.235 158.525 L 316.457 158.525 L 316.457 148.344 L 317.543 148.344 L 317.543 150.817 A 22.645 22.645 0 0 1 317.531 151.582 Q 317.518 151.944 317.494 152.266 A 13.548 13.548 0 0 1 317.49 152.309 L 317.543 152.309 A 2.469 2.469 0 0 1 319.345 151.262 A 3.71 3.71 0 0 1 319.794 151.236 A 3.32 3.32 0 0 1 320.728 151.361 A 2.485 2.485 0 0 1 321.989 152.201 A 3.201 3.201 0 0 1 322.55 153.282 Q 322.688 153.727 322.74 154.261 A 6.972 6.972 0 0 1 322.771 154.933 Q 322.771 156.699 321.982 157.678 A 2.571 2.571 0 0 1 320.155 158.638 A 3.684 3.684 0 0 1 319.794 158.656 A 3.294 3.294 0 0 1 318.966 158.555 A 2.867 2.867 0 0 1 318.514 158.397 A 2.406 2.406 0 0 1 317.543 157.602 Z M 336.059 157.628 L 336.059 158.459 A 1.068 1.068 0 0 1 335.933 158.51 Q 335.798 158.555 335.604 158.589 A 4.062 4.062 0 0 1 335.539 158.6 Q 335.219 158.652 334.958 158.655 A 2.785 2.785 0 0 1 334.921 158.656 Q 332.84 158.656 332.84 156.464 L 332.84 152.198 L 331.813 152.198 L 331.813 151.674 L 332.84 151.223 L 333.298 149.692 L 333.926 149.692 L 333.926 151.354 L 336.007 151.354 L 336.007 152.198 L 333.926 152.198 L 333.926 156.418 A 2.187 2.187 0 0 0 333.958 156.802 Q 333.996 157.013 334.078 157.18 A 1.054 1.054 0 0 0 334.234 157.413 A 1.009 1.009 0 0 0 334.854 157.743 A 1.452 1.452 0 0 0 335.078 157.759 Q 335.366 157.759 335.634 157.717 A 5.875 5.875 0 0 0 335.791 157.69 Q 335.941 157.662 336.045 157.633 A 1.633 1.633 0 0 0 336.059 157.628 Z M 340.79 157.628 L 340.79 158.459 A 1.068 1.068 0 0 1 340.663 158.51 Q 340.528 158.555 340.335 158.589 A 4.062 4.062 0 0 1 340.27 158.6 Q 339.949 158.652 339.688 158.655 A 2.785 2.785 0 0 1 339.652 158.656 Q 337.571 158.656 337.571 156.464 L 337.571 152.198 L 336.544 152.198 L 336.544 151.674 L 337.571 151.223 L 338.029 149.692 L 338.657 149.692 L 338.657 151.354 L 340.738 151.354 L 340.738 152.198 L 338.657 152.198 L 338.657 156.418 A 2.187 2.187 0 0 0 338.689 156.802 Q 338.726 157.013 338.809 157.18 A 1.054 1.054 0 0 0 338.965 157.413 A 1.009 1.009 0 0 0 339.585 157.743 A 1.452 1.452 0 0 0 339.809 157.759 Q 340.096 157.759 340.365 157.717 A 5.875 5.875 0 0 0 340.522 157.69 Q 340.671 157.662 340.775 157.633 A 1.633 1.633 0 0 0 340.79 157.628 Z M 330.858 154.933 Q 330.858 156.686 329.974 157.671 Q 329.091 158.656 327.534 158.656 A 3.488 3.488 0 0 1 326.52 158.513 A 3.024 3.024 0 0 1 325.826 158.204 A 2.94 2.94 0 0 1 324.754 157.064 A 3.57 3.57 0 0 1 324.675 156.909 A 4.018 4.018 0 0 1 324.337 155.813 A 5.433 5.433 0 0 1 324.269 154.933 A 5.639 5.639 0 0 1 324.368 153.842 Q 324.564 152.851 325.146 152.201 A 2.873 2.873 0 0 1 326.822 151.288 A 4.218 4.218 0 0 1 327.58 151.223 A 3.65 3.65 0 0 1 328.651 151.373 A 2.843 2.843 0 0 1 329.971 152.224 A 3.382 3.382 0 0 1 330.71 153.656 Q 330.839 154.163 330.855 154.76 A 6.374 6.374 0 0 1 330.858 154.933 Z M 348.413 154.933 Q 348.413 156.686 347.529 157.671 Q 346.646 158.656 345.089 158.656 A 3.488 3.488 0 0 1 344.075 158.513 A 3.024 3.024 0 0 1 343.381 158.204 A 2.94 2.94 0 0 1 342.309 157.064 A 3.57 3.57 0 0 1 342.229 156.909 A 4.018 4.018 0 0 1 341.892 155.813 A 5.433 5.433 0 0 1 341.824 154.933 A 5.639 5.639 0 0 1 341.923 153.842 Q 342.118 152.851 342.701 152.201 A 2.873 2.873 0 0 1 344.377 151.288 A 4.218 4.218 0 0 1 345.135 151.223 A 3.65 3.65 0 0 1 346.206 151.373 A 2.843 2.843 0 0 1 347.526 152.224 A 3.382 3.382 0 0 1 348.265 153.656 Q 348.394 154.163 348.41 154.76 A 6.374 6.374 0 0 1 348.413 154.933 Z M 325.394 154.933 A 5.5 5.5 0 0 0 325.447 155.718 Q 325.504 156.117 325.626 156.44 A 2.279 2.279 0 0 0 325.944 157.026 Q 326.494 157.746 327.56 157.746 A 2.523 2.523 0 0 0 328.226 157.663 A 1.756 1.756 0 0 0 329.18 157.03 Q 329.591 156.497 329.696 155.597 A 5.721 5.721 0 0 0 329.732 154.933 Q 329.732 153.565 329.18 152.855 A 1.787 1.787 0 0 0 328.069 152.193 A 2.739 2.739 0 0 0 327.547 152.145 A 2.585 2.585 0 0 0 326.904 152.221 A 1.73 1.73 0 0 0 325.937 152.846 A 2.246 2.246 0 0 0 325.588 153.52 Q 325.485 153.83 325.437 154.209 A 5.739 5.739 0 0 0 325.394 154.933 Z M 342.949 154.933 A 5.5 5.5 0 0 0 343.002 155.718 Q 343.059 156.117 343.181 156.44 A 2.279 2.279 0 0 0 343.499 157.026 Q 344.048 157.746 345.115 157.746 A 2.523 2.523 0 0 0 345.78 157.663 A 1.756 1.756 0 0 0 346.734 157.03 Q 347.145 156.497 347.251 155.597 A 5.721 5.721 0 0 0 347.287 154.933 Q 347.287 153.565 346.734 152.855 A 1.787 1.787 0 0 0 345.623 152.193 A 2.739 2.739 0 0 0 345.102 152.145 A 2.585 2.585 0 0 0 344.458 152.221 A 1.73 1.73 0 0 0 343.492 152.846 A 2.246 2.246 0 0 0 343.143 153.52 Q 343.04 153.83 342.992 154.209 A 5.739 5.739 0 0 0 342.949 154.933 Z M 319.637 152.145 A 3.052 3.052 0 0 0 319.045 152.199 Q 318.709 152.265 318.453 152.415 A 1.444 1.444 0 0 0 318.034 152.783 A 1.859 1.859 0 0 0 317.764 153.296 Q 317.583 153.805 317.55 154.579 A 8.368 8.368 0 0 0 317.543 154.933 Q 317.543 156.217 317.906 156.88 A 1.638 1.638 0 0 0 318.047 157.095 Q 318.55 157.746 319.663 157.746 A 2.165 2.165 0 0 0 320.278 157.664 A 1.562 1.562 0 0 0 321.155 157.017 Q 321.645 156.287 321.645 154.92 A 6.417 6.417 0 0 0 321.606 154.188 Q 321.514 153.389 321.204 152.906 A 1.802 1.802 0 0 0 321.155 152.832 A 1.584 1.584 0 0 0 320.146 152.194 A 2.512 2.512 0 0 0 319.637 152.145 Z"
       id="bottom_labelLayer"
       stroke="#777777"
       fill="#777777"
       style="stroke:#777777;fill:#777777"
       vector-effect="non-scaling-stroke" />
  </g>
  <rect
     style="fill:none;stroke:#ff0000;stroke-width:0.264583"
     id="rect101"
     width="70"
     height="26"
     x="83.97747"
     y="150.94226" />
</svg>
