G04 #@! TF.GenerationSoftware,KiCad,Pcbnew,(5.1.7)-1*
G04 #@! TF.CreationDate,2021-04-15T13:32:14+02:00*
G04 #@! TF.ProjectId,TestPCB,54657374-5043-4422-9e6b-696361645f70,rev?*
G04 #@! TF.SameCoordinates,Original*
G04 #@! TF.FileFunction,Soldermask,Bot*
G04 #@! TF.FilePolarity,Negative*
%FSLAX46Y46*%
G04 Gerber Fmt 4.6, Leading zero omitted, Abs format (unit mm)*
G04 Created by KiCad (PCBNEW (5.1.7)-1) date 2021-04-15 13:32:14*
%MOMM*%
%LPD*%
G01*
G04 APERTURE LIST*
%ADD10O,3.000000X2.000000*%
%ADD11R,3.000000X2.000000*%
%ADD12O,2.000000X3.000000*%
%ADD13R,2.000000X3.000000*%
%ADD14O,0.950000X1.900000*%
%ADD15C,1.650000*%
G04 APERTURE END LIST*
D10*
X113665000Y-115824000D03*
X113665000Y-118364000D03*
X113665000Y-78744000D03*
X161925000Y-118364000D03*
X113665000Y-81284000D03*
X161925000Y-115824000D03*
X113665000Y-83824000D03*
X161925000Y-113284000D03*
X113665000Y-86364000D03*
X161925000Y-110744000D03*
X113665000Y-88904000D03*
X161925000Y-108204000D03*
X113665000Y-91444000D03*
X161925000Y-105664000D03*
X113665000Y-93984000D03*
X161925000Y-100584000D03*
X113665000Y-96524000D03*
X161925000Y-98044000D03*
X113665000Y-100584000D03*
X161925000Y-95504000D03*
X113665000Y-103124000D03*
X161925000Y-92964000D03*
X113665000Y-105664000D03*
X161925000Y-90424000D03*
X113665000Y-108204000D03*
X161925000Y-87884000D03*
X113665000Y-110744000D03*
X161925000Y-85344000D03*
X113665000Y-113284000D03*
D11*
X161925000Y-82804000D03*
D10*
X113665000Y-76204000D03*
X113665000Y-73664000D03*
D12*
X197358000Y-108966000D03*
X194818000Y-108966000D03*
X192278000Y-108966000D03*
D13*
X189738000Y-108966000D03*
D14*
X180665000Y-68643500D03*
X173665000Y-68643500D03*
D15*
X179665000Y-71343500D03*
X174665000Y-71343500D03*
M02*
