G04 #@! TF.GenerationSoftware,KiCad,Pcbnew,(5.1.7)-1*
G04 #@! TF.CreationDate,2021-04-15T13:32:14+02:00*
G04 #@! TF.ProjectId,TestPCB,54657374-5043-4422-9e6b-696361645f70,rev?*
G04 #@! TF.SameCoordinates,Original*
G04 #@! TF.FileFunction,Legend,Top*
G04 #@! TF.FilePolarity,Positive*
%FSLAX46Y46*%
G04 Gerber Fmt 4.6, Leading zero omitted, Abs format (unit mm)*
G04 Created by KiCad (PCBNEW (5.1.7)-1) date 2021-04-15 13:32:14*
%MOMM*%
%LPD*%
G01*
G04 APERTURE LIST*
%ADD10C,0.150000*%
%ADD11C,0.200000*%
%ADD12C,0.127000*%
%ADD13C,0.203200*%
%ADD14C,0.120000*%
%ADD15C,0.300000*%
%ADD16C,0.100000*%
G04 APERTURE END LIST*
D10*
X188159071Y-105037000D02*
X188063833Y-104989380D01*
X187920976Y-104989380D01*
X187778119Y-105037000D01*
X187682880Y-105132238D01*
X187635261Y-105227476D01*
X187587642Y-105417952D01*
X187587642Y-105560809D01*
X187635261Y-105751285D01*
X187682880Y-105846523D01*
X187778119Y-105941761D01*
X187920976Y-105989380D01*
X188016214Y-105989380D01*
X188159071Y-105941761D01*
X188206690Y-105894142D01*
X188206690Y-105560809D01*
X188016214Y-105560809D01*
X188635261Y-105989380D02*
X188635261Y-104989380D01*
X189206690Y-105989380D01*
X189206690Y-104989380D01*
X189682880Y-105989380D02*
X189682880Y-104989380D01*
X189920976Y-104989380D01*
X190063833Y-105037000D01*
X190159071Y-105132238D01*
X190206690Y-105227476D01*
X190254309Y-105417952D01*
X190254309Y-105560809D01*
X190206690Y-105751285D01*
X190159071Y-105846523D01*
X190063833Y-105941761D01*
X189920976Y-105989380D01*
X189682880Y-105989380D01*
X192016214Y-105989380D02*
X191682880Y-105513190D01*
X191444785Y-105989380D02*
X191444785Y-104989380D01*
X191825738Y-104989380D01*
X191920976Y-105037000D01*
X191968595Y-105084619D01*
X192016214Y-105179857D01*
X192016214Y-105322714D01*
X191968595Y-105417952D01*
X191920976Y-105465571D01*
X191825738Y-105513190D01*
X191444785Y-105513190D01*
X192349547Y-104989380D02*
X193016214Y-105989380D01*
X193016214Y-104989380D02*
X192349547Y-105989380D01*
X194016214Y-104989380D02*
X194587642Y-104989380D01*
X194301928Y-105989380D02*
X194301928Y-104989380D01*
X194825738Y-104989380D02*
X195492404Y-105989380D01*
X195492404Y-104989380D02*
X194825738Y-105989380D01*
X196540023Y-104989380D02*
X197159071Y-104989380D01*
X196825738Y-105370333D01*
X196968595Y-105370333D01*
X197063833Y-105417952D01*
X197111452Y-105465571D01*
X197159071Y-105560809D01*
X197159071Y-105798904D01*
X197111452Y-105894142D01*
X197063833Y-105941761D01*
X196968595Y-105989380D01*
X196682880Y-105989380D01*
X196587642Y-105941761D01*
X196540023Y-105894142D01*
X197492404Y-105322714D02*
X197730500Y-105989380D01*
X197968595Y-105322714D01*
X198254309Y-104989380D02*
X198873357Y-104989380D01*
X198540023Y-105370333D01*
X198682880Y-105370333D01*
X198778119Y-105417952D01*
X198825738Y-105465571D01*
X198873357Y-105560809D01*
X198873357Y-105798904D01*
X198825738Y-105894142D01*
X198778119Y-105941761D01*
X198682880Y-105989380D01*
X198397166Y-105989380D01*
X198301928Y-105941761D01*
X198254309Y-105894142D01*
D11*
X184801761Y-67991880D02*
X184325571Y-67991880D01*
X184325571Y-66991880D01*
X185706523Y-67896642D02*
X185658904Y-67944261D01*
X185516047Y-67991880D01*
X185420809Y-67991880D01*
X185277952Y-67944261D01*
X185182714Y-67849023D01*
X185135095Y-67753785D01*
X185087476Y-67563309D01*
X185087476Y-67420452D01*
X185135095Y-67229976D01*
X185182714Y-67134738D01*
X185277952Y-67039500D01*
X185420809Y-66991880D01*
X185516047Y-66991880D01*
X185658904Y-67039500D01*
X185706523Y-67087119D01*
X186135095Y-67991880D02*
X186135095Y-66991880D01*
X186373190Y-66991880D01*
X186516047Y-67039500D01*
X186611285Y-67134738D01*
X186658904Y-67229976D01*
X186706523Y-67420452D01*
X186706523Y-67563309D01*
X186658904Y-67753785D01*
X186611285Y-67849023D01*
X186516047Y-67944261D01*
X186373190Y-67991880D01*
X186135095Y-67991880D01*
X188230333Y-67468071D02*
X187897000Y-67468071D01*
X187897000Y-67991880D02*
X187897000Y-66991880D01*
X188373190Y-66991880D01*
X188754142Y-67991880D02*
X188754142Y-67325214D01*
X188754142Y-66991880D02*
X188706523Y-67039500D01*
X188754142Y-67087119D01*
X188801761Y-67039500D01*
X188754142Y-66991880D01*
X188754142Y-67087119D01*
X189087476Y-67325214D02*
X189468428Y-67325214D01*
X189230333Y-66991880D02*
X189230333Y-67849023D01*
X189277952Y-67944261D01*
X189373190Y-67991880D01*
X189468428Y-67991880D01*
X189801761Y-67325214D02*
X189801761Y-67991880D01*
X189801761Y-67420452D02*
X189849380Y-67372833D01*
X189944619Y-67325214D01*
X190087476Y-67325214D01*
X190182714Y-67372833D01*
X190230333Y-67468071D01*
X190230333Y-67991880D01*
X191087476Y-67944261D02*
X190992238Y-67991880D01*
X190801761Y-67991880D01*
X190706523Y-67944261D01*
X190658904Y-67849023D01*
X190658904Y-67468071D01*
X190706523Y-67372833D01*
X190801761Y-67325214D01*
X190992238Y-67325214D01*
X191087476Y-67372833D01*
X191135095Y-67468071D01*
X191135095Y-67563309D01*
X190658904Y-67658547D01*
X191516047Y-67944261D02*
X191611285Y-67991880D01*
X191801761Y-67991880D01*
X191897000Y-67944261D01*
X191944619Y-67849023D01*
X191944619Y-67801404D01*
X191897000Y-67706166D01*
X191801761Y-67658547D01*
X191658904Y-67658547D01*
X191563666Y-67610928D01*
X191516047Y-67515690D01*
X191516047Y-67468071D01*
X191563666Y-67372833D01*
X191658904Y-67325214D01*
X191801761Y-67325214D01*
X191897000Y-67372833D01*
X192325571Y-67944261D02*
X192420809Y-67991880D01*
X192611285Y-67991880D01*
X192706523Y-67944261D01*
X192754142Y-67849023D01*
X192754142Y-67801404D01*
X192706523Y-67706166D01*
X192611285Y-67658547D01*
X192468428Y-67658547D01*
X192373190Y-67610928D01*
X192325571Y-67515690D01*
X192325571Y-67468071D01*
X192373190Y-67372833D01*
X192468428Y-67325214D01*
X192611285Y-67325214D01*
X192706523Y-67372833D01*
X193801761Y-67325214D02*
X194182714Y-67325214D01*
X193944619Y-66991880D02*
X193944619Y-67849023D01*
X193992238Y-67944261D01*
X194087476Y-67991880D01*
X194182714Y-67991880D01*
X194516047Y-67991880D02*
X194516047Y-67325214D01*
X194516047Y-67515690D02*
X194563666Y-67420452D01*
X194611285Y-67372833D01*
X194706523Y-67325214D01*
X194801761Y-67325214D01*
X195563666Y-67991880D02*
X195563666Y-67468071D01*
X195516047Y-67372833D01*
X195420809Y-67325214D01*
X195230333Y-67325214D01*
X195135095Y-67372833D01*
X195563666Y-67944261D02*
X195468428Y-67991880D01*
X195230333Y-67991880D01*
X195135095Y-67944261D01*
X195087476Y-67849023D01*
X195087476Y-67753785D01*
X195135095Y-67658547D01*
X195230333Y-67610928D01*
X195468428Y-67610928D01*
X195563666Y-67563309D01*
X196468428Y-67944261D02*
X196373190Y-67991880D01*
X196182714Y-67991880D01*
X196087476Y-67944261D01*
X196039857Y-67896642D01*
X195992238Y-67801404D01*
X195992238Y-67515690D01*
X196039857Y-67420452D01*
X196087476Y-67372833D01*
X196182714Y-67325214D01*
X196373190Y-67325214D01*
X196468428Y-67372833D01*
X196897000Y-67991880D02*
X196897000Y-66991880D01*
X196992238Y-67610928D02*
X197277952Y-67991880D01*
X197277952Y-67325214D02*
X196897000Y-67706166D01*
X198087476Y-67944261D02*
X197992238Y-67991880D01*
X197801761Y-67991880D01*
X197706523Y-67944261D01*
X197658904Y-67849023D01*
X197658904Y-67468071D01*
X197706523Y-67372833D01*
X197801761Y-67325214D01*
X197992238Y-67325214D01*
X198087476Y-67372833D01*
X198135095Y-67468071D01*
X198135095Y-67563309D01*
X197658904Y-67658547D01*
X198563666Y-67991880D02*
X198563666Y-67325214D01*
X198563666Y-67515690D02*
X198611285Y-67420452D01*
X198658904Y-67372833D01*
X198754142Y-67325214D01*
X198849380Y-67325214D01*
X188468428Y-69691880D02*
X188468428Y-68691880D01*
X188801761Y-69406166D01*
X189135095Y-68691880D01*
X189135095Y-69691880D01*
X189611285Y-69691880D02*
X189611285Y-68691880D01*
X189944619Y-69406166D01*
X190277952Y-68691880D01*
X190277952Y-69691880D01*
X191897000Y-69644261D02*
X191801761Y-69691880D01*
X191611285Y-69691880D01*
X191516047Y-69644261D01*
X191468428Y-69549023D01*
X191468428Y-69168071D01*
X191516047Y-69072833D01*
X191611285Y-69025214D01*
X191801761Y-69025214D01*
X191897000Y-69072833D01*
X191944619Y-69168071D01*
X191944619Y-69263309D01*
X191468428Y-69358547D01*
X192373190Y-69025214D02*
X192373190Y-69691880D01*
X192373190Y-69120452D02*
X192420809Y-69072833D01*
X192516047Y-69025214D01*
X192658904Y-69025214D01*
X192754142Y-69072833D01*
X192801761Y-69168071D01*
X192801761Y-69691880D01*
X194325571Y-68691880D02*
X194325571Y-69406166D01*
X194277952Y-69549023D01*
X194182714Y-69644261D01*
X194039857Y-69691880D01*
X193944619Y-69691880D01*
X194801761Y-69691880D02*
X194801761Y-68691880D01*
X195039857Y-68691880D01*
X195182714Y-68739500D01*
X195277952Y-68834738D01*
X195325571Y-68929976D01*
X195373190Y-69120452D01*
X195373190Y-69263309D01*
X195325571Y-69453785D01*
X195277952Y-69549023D01*
X195182714Y-69644261D01*
X195039857Y-69691880D01*
X194801761Y-69691880D01*
D12*
X210008000Y-99872500D02*
X203508000Y-99872500D01*
X210008000Y-81872500D02*
X210008000Y-99872500D01*
X203508000Y-81872500D02*
X210008000Y-81872500D01*
X184508000Y-99872500D02*
X185158000Y-99872500D01*
X184508000Y-97422500D02*
X184508000Y-99872500D01*
X184508000Y-81872500D02*
X184508000Y-84322500D01*
X185158000Y-81872500D02*
X184508000Y-81872500D01*
D11*
X202608000Y-80872500D02*
G75*
G03*
X202608000Y-80872500I-100000J0D01*
G01*
D13*
X181545000Y-105130500D02*
X181545000Y-105730500D01*
X181545000Y-105730500D02*
X182345000Y-105730500D01*
X181545000Y-103530500D02*
X181545000Y-102930500D01*
X181545000Y-102930500D02*
X182345000Y-102930500D01*
X195515000Y-116583000D02*
X196315000Y-116583000D01*
X195515000Y-117183000D02*
X195515000Y-116583000D01*
X195515000Y-119383000D02*
X196315000Y-119383000D01*
X195515000Y-118783000D02*
X195515000Y-119383000D01*
D14*
X126615000Y-123574000D02*
X159385000Y-123574000D01*
X159385000Y-123574000D02*
X161925000Y-121034000D01*
X161925000Y-121034000D02*
X164595000Y-121034000D01*
X164595000Y-121034000D02*
X164595000Y-54734000D01*
X164595000Y-54734000D02*
X161415000Y-54734000D01*
X161415000Y-54734000D02*
X161415000Y-52834000D01*
X161415000Y-52834000D02*
X152275000Y-52834000D01*
X152275000Y-52834000D02*
X152275000Y-54734000D01*
X152275000Y-54734000D02*
X132205000Y-54734000D01*
X132205000Y-54734000D02*
X132205000Y-48384000D01*
X132205000Y-48384000D02*
X120525000Y-48384000D01*
X120525000Y-48384000D02*
X120525000Y-54734000D01*
X120525000Y-54734000D02*
X110995000Y-54734000D01*
X110995000Y-54734000D02*
X110995000Y-119384000D01*
X110995000Y-119384000D02*
X112645000Y-121034000D01*
X112645000Y-121034000D02*
X124075000Y-121034000D01*
X124075000Y-121034000D02*
X126615000Y-123574000D01*
X188408000Y-108966000D02*
X188408000Y-107636000D01*
X188408000Y-107636000D02*
X189738000Y-107636000D01*
X191008000Y-107636000D02*
X198688000Y-107636000D01*
X198688000Y-110296000D02*
X198688000Y-107636000D01*
X191008000Y-110296000D02*
X198688000Y-110296000D01*
X191008000Y-110296000D02*
X191008000Y-107636000D01*
D12*
X180915000Y-69913500D02*
X180915000Y-71493500D01*
X180915000Y-71493500D02*
X180644000Y-71493500D01*
X173415000Y-69913500D02*
X173415000Y-71493500D01*
X173415000Y-71493500D02*
X173686000Y-71493500D01*
D15*
X178565000Y-72543500D02*
G75*
G03*
X178565000Y-72543500I-100000J0D01*
G01*
D12*
X180915000Y-67373500D02*
X180915000Y-67193500D01*
X180915000Y-67193500D02*
X173415000Y-67193500D01*
X173415000Y-67193500D02*
X173415000Y-67373500D01*
D14*
X189822500Y-76172748D02*
X189822500Y-77595252D01*
X188002500Y-76172748D02*
X188002500Y-77595252D01*
X169248500Y-80677936D02*
X169248500Y-82132064D01*
X167428500Y-80677936D02*
X167428500Y-82132064D01*
X174921500Y-106645064D02*
X174921500Y-105190936D01*
X176741500Y-106645064D02*
X176741500Y-105190936D01*
X189124000Y-116872936D02*
X189124000Y-118327064D01*
X187304000Y-116872936D02*
X187304000Y-118327064D01*
X181377000Y-117384936D02*
X181377000Y-118839064D01*
X179557000Y-117384936D02*
X179557000Y-118839064D01*
X172423500Y-105188936D02*
X172423500Y-106643064D01*
X170603500Y-105188936D02*
X170603500Y-106643064D01*
X176043000Y-117509936D02*
X176043000Y-118964064D01*
X174223000Y-117509936D02*
X174223000Y-118964064D01*
X173889564Y-97197500D02*
X172435436Y-97197500D01*
X173889564Y-99017500D02*
X172435436Y-99017500D01*
X184361500Y-75788436D02*
X184361500Y-77242564D01*
X182541500Y-75788436D02*
X182541500Y-77242564D01*
X173540500Y-73933000D02*
X173540500Y-75193000D01*
X173540500Y-80753000D02*
X173540500Y-79493000D01*
X177300500Y-73933000D02*
X173540500Y-73933000D01*
X179550500Y-80753000D02*
X173540500Y-80753000D01*
D11*
X198523000Y-77327000D02*
G75*
G03*
X198523000Y-77327000I-100000J0D01*
G01*
X193623000Y-74477000D02*
X193623000Y-75227000D01*
X199823000Y-74477000D02*
X193623000Y-74477000D01*
X199823000Y-75127000D02*
X199823000Y-74477000D01*
X193623000Y-78177000D02*
X193623000Y-77427000D01*
X199823000Y-78177000D02*
X193623000Y-78177000D01*
X199823000Y-77427000D02*
X199823000Y-78177000D01*
D14*
X173312500Y-90919248D02*
X173312500Y-92341752D01*
X171492500Y-90919248D02*
X171492500Y-92341752D01*
X176375748Y-84815000D02*
X177798252Y-84815000D01*
X176375748Y-86635000D02*
X177798252Y-86635000D01*
X170095500Y-118948252D02*
X170095500Y-117525748D01*
X171915500Y-118948252D02*
X171915500Y-117525748D01*
D11*
X178106500Y-95997500D02*
G75*
G03*
X178106500Y-95997500I-100000J0D01*
G01*
X180856500Y-91197500D02*
X180106500Y-91197500D01*
X180856500Y-97397500D02*
X180856500Y-91197500D01*
X180206500Y-97397500D02*
X180856500Y-97397500D01*
X177156500Y-91197500D02*
X177906500Y-91197500D01*
X177156500Y-97397500D02*
X177156500Y-91197500D01*
X177906500Y-97397500D02*
X177156500Y-97397500D01*
D16*
X194498000Y-98422500D02*
X194498000Y-100322500D01*
X195298000Y-100322500D01*
X195298000Y-98422500D01*
X194498000Y-98422500D01*
D10*
X191786142Y-90670071D02*
X192119476Y-90670071D01*
X192262333Y-91193880D02*
X191786142Y-91193880D01*
X191786142Y-90193880D01*
X192262333Y-90193880D01*
X192643285Y-91146261D02*
X192786142Y-91193880D01*
X193024238Y-91193880D01*
X193119476Y-91146261D01*
X193167095Y-91098642D01*
X193214714Y-91003404D01*
X193214714Y-90908166D01*
X193167095Y-90812928D01*
X193119476Y-90765309D01*
X193024238Y-90717690D01*
X192833761Y-90670071D01*
X192738523Y-90622452D01*
X192690904Y-90574833D01*
X192643285Y-90479595D01*
X192643285Y-90384357D01*
X192690904Y-90289119D01*
X192738523Y-90241500D01*
X192833761Y-90193880D01*
X193071857Y-90193880D01*
X193214714Y-90241500D01*
X193643285Y-91193880D02*
X193643285Y-90193880D01*
X194024238Y-90193880D01*
X194119476Y-90241500D01*
X194167095Y-90289119D01*
X194214714Y-90384357D01*
X194214714Y-90527214D01*
X194167095Y-90622452D01*
X194119476Y-90670071D01*
X194024238Y-90717690D01*
X193643285Y-90717690D01*
X194548047Y-90193880D02*
X195167095Y-90193880D01*
X194833761Y-90574833D01*
X194976619Y-90574833D01*
X195071857Y-90622452D01*
X195119476Y-90670071D01*
X195167095Y-90765309D01*
X195167095Y-91003404D01*
X195119476Y-91098642D01*
X195071857Y-91146261D01*
X194976619Y-91193880D01*
X194690904Y-91193880D01*
X194595666Y-91146261D01*
X194548047Y-91098642D01*
X195548047Y-90289119D02*
X195595666Y-90241500D01*
X195690904Y-90193880D01*
X195929000Y-90193880D01*
X196024238Y-90241500D01*
X196071857Y-90289119D01*
X196119476Y-90384357D01*
X196119476Y-90479595D01*
X196071857Y-90622452D01*
X195500428Y-91193880D01*
X196119476Y-91193880D01*
X184753261Y-104941619D02*
X184658023Y-104894000D01*
X184562785Y-104798761D01*
X184419928Y-104655904D01*
X184324690Y-104608285D01*
X184229452Y-104608285D01*
X184277071Y-104846380D02*
X184181833Y-104798761D01*
X184086595Y-104703523D01*
X184038976Y-104513047D01*
X184038976Y-104179714D01*
X184086595Y-103989238D01*
X184181833Y-103894000D01*
X184277071Y-103846380D01*
X184467547Y-103846380D01*
X184562785Y-103894000D01*
X184658023Y-103989238D01*
X184705642Y-104179714D01*
X184705642Y-104513047D01*
X184658023Y-104703523D01*
X184562785Y-104798761D01*
X184467547Y-104846380D01*
X184277071Y-104846380D01*
X185086595Y-103941619D02*
X185134214Y-103894000D01*
X185229452Y-103846380D01*
X185467547Y-103846380D01*
X185562785Y-103894000D01*
X185610404Y-103941619D01*
X185658023Y-104036857D01*
X185658023Y-104132095D01*
X185610404Y-104274952D01*
X185038976Y-104846380D01*
X185658023Y-104846380D01*
X194278261Y-116562119D02*
X194183023Y-116514500D01*
X194087785Y-116419261D01*
X193944928Y-116276404D01*
X193849690Y-116228785D01*
X193754452Y-116228785D01*
X193802071Y-116466880D02*
X193706833Y-116419261D01*
X193611595Y-116324023D01*
X193563976Y-116133547D01*
X193563976Y-115800214D01*
X193611595Y-115609738D01*
X193706833Y-115514500D01*
X193802071Y-115466880D01*
X193992547Y-115466880D01*
X194087785Y-115514500D01*
X194183023Y-115609738D01*
X194230642Y-115800214D01*
X194230642Y-116133547D01*
X194183023Y-116324023D01*
X194087785Y-116419261D01*
X193992547Y-116466880D01*
X193802071Y-116466880D01*
X195183023Y-116466880D02*
X194611595Y-116466880D01*
X194897309Y-116466880D02*
X194897309Y-115466880D01*
X194802071Y-115609738D01*
X194706833Y-115704976D01*
X194611595Y-115752595D01*
X140914523Y-83256380D02*
X140438333Y-83256380D01*
X140438333Y-82256380D01*
X141819285Y-83161142D02*
X141771666Y-83208761D01*
X141628809Y-83256380D01*
X141533571Y-83256380D01*
X141390714Y-83208761D01*
X141295476Y-83113523D01*
X141247857Y-83018285D01*
X141200238Y-82827809D01*
X141200238Y-82684952D01*
X141247857Y-82494476D01*
X141295476Y-82399238D01*
X141390714Y-82304000D01*
X141533571Y-82256380D01*
X141628809Y-82256380D01*
X141771666Y-82304000D01*
X141819285Y-82351619D01*
X142247857Y-83256380D02*
X142247857Y-82256380D01*
X142485952Y-82256380D01*
X142628809Y-82304000D01*
X142724047Y-82399238D01*
X142771666Y-82494476D01*
X142819285Y-82684952D01*
X142819285Y-82827809D01*
X142771666Y-83018285D01*
X142724047Y-83113523D01*
X142628809Y-83208761D01*
X142485952Y-83256380D01*
X142247857Y-83256380D01*
X190595833Y-77241142D02*
X190548214Y-77288761D01*
X190405357Y-77336380D01*
X190310119Y-77336380D01*
X190167261Y-77288761D01*
X190072023Y-77193523D01*
X190024404Y-77098285D01*
X189976785Y-76907809D01*
X189976785Y-76764952D01*
X190024404Y-76574476D01*
X190072023Y-76479238D01*
X190167261Y-76384000D01*
X190310119Y-76336380D01*
X190405357Y-76336380D01*
X190548214Y-76384000D01*
X190595833Y-76431619D01*
X190929166Y-76336380D02*
X191548214Y-76336380D01*
X191214880Y-76717333D01*
X191357738Y-76717333D01*
X191452976Y-76764952D01*
X191500595Y-76812571D01*
X191548214Y-76907809D01*
X191548214Y-77145904D01*
X191500595Y-77241142D01*
X191452976Y-77288761D01*
X191357738Y-77336380D01*
X191072023Y-77336380D01*
X190976785Y-77288761D01*
X190929166Y-77241142D01*
X169991833Y-81857380D02*
X169658500Y-81381190D01*
X169420404Y-81857380D02*
X169420404Y-80857380D01*
X169801357Y-80857380D01*
X169896595Y-80905000D01*
X169944214Y-80952619D01*
X169991833Y-81047857D01*
X169991833Y-81190714D01*
X169944214Y-81285952D01*
X169896595Y-81333571D01*
X169801357Y-81381190D01*
X169420404Y-81381190D01*
X170563261Y-81285952D02*
X170468023Y-81238333D01*
X170420404Y-81190714D01*
X170372785Y-81095476D01*
X170372785Y-81047857D01*
X170420404Y-80952619D01*
X170468023Y-80905000D01*
X170563261Y-80857380D01*
X170753738Y-80857380D01*
X170848976Y-80905000D01*
X170896595Y-80952619D01*
X170944214Y-81047857D01*
X170944214Y-81095476D01*
X170896595Y-81190714D01*
X170848976Y-81238333D01*
X170753738Y-81285952D01*
X170563261Y-81285952D01*
X170468023Y-81333571D01*
X170420404Y-81381190D01*
X170372785Y-81476428D01*
X170372785Y-81666904D01*
X170420404Y-81762142D01*
X170468023Y-81809761D01*
X170563261Y-81857380D01*
X170753738Y-81857380D01*
X170848976Y-81809761D01*
X170896595Y-81762142D01*
X170944214Y-81666904D01*
X170944214Y-81476428D01*
X170896595Y-81381190D01*
X170848976Y-81333571D01*
X170753738Y-81285952D01*
X177569833Y-106624380D02*
X177236500Y-106148190D01*
X176998404Y-106624380D02*
X176998404Y-105624380D01*
X177379357Y-105624380D01*
X177474595Y-105672000D01*
X177522214Y-105719619D01*
X177569833Y-105814857D01*
X177569833Y-105957714D01*
X177522214Y-106052952D01*
X177474595Y-106100571D01*
X177379357Y-106148190D01*
X176998404Y-106148190D01*
X177903166Y-105624380D02*
X178569833Y-105624380D01*
X178141261Y-106624380D01*
X190079333Y-117546380D02*
X189746000Y-117070190D01*
X189507904Y-117546380D02*
X189507904Y-116546380D01*
X189888857Y-116546380D01*
X189984095Y-116594000D01*
X190031714Y-116641619D01*
X190079333Y-116736857D01*
X190079333Y-116879714D01*
X190031714Y-116974952D01*
X189984095Y-117022571D01*
X189888857Y-117070190D01*
X189507904Y-117070190D01*
X190936476Y-116546380D02*
X190746000Y-116546380D01*
X190650761Y-116594000D01*
X190603142Y-116641619D01*
X190507904Y-116784476D01*
X190460285Y-116974952D01*
X190460285Y-117355904D01*
X190507904Y-117451142D01*
X190555523Y-117498761D01*
X190650761Y-117546380D01*
X190841238Y-117546380D01*
X190936476Y-117498761D01*
X190984095Y-117451142D01*
X191031714Y-117355904D01*
X191031714Y-117117809D01*
X190984095Y-117022571D01*
X190936476Y-116974952D01*
X190841238Y-116927333D01*
X190650761Y-116927333D01*
X190555523Y-116974952D01*
X190507904Y-117022571D01*
X190460285Y-117117809D01*
X182120333Y-118564380D02*
X181787000Y-118088190D01*
X181548904Y-118564380D02*
X181548904Y-117564380D01*
X181929857Y-117564380D01*
X182025095Y-117612000D01*
X182072714Y-117659619D01*
X182120333Y-117754857D01*
X182120333Y-117897714D01*
X182072714Y-117992952D01*
X182025095Y-118040571D01*
X181929857Y-118088190D01*
X181548904Y-118088190D01*
X183025095Y-117564380D02*
X182548904Y-117564380D01*
X182501285Y-118040571D01*
X182548904Y-117992952D01*
X182644142Y-117945333D01*
X182882238Y-117945333D01*
X182977476Y-117992952D01*
X183025095Y-118040571D01*
X183072714Y-118135809D01*
X183072714Y-118373904D01*
X183025095Y-118469142D01*
X182977476Y-118516761D01*
X182882238Y-118564380D01*
X182644142Y-118564380D01*
X182548904Y-118516761D01*
X182501285Y-118469142D01*
X173166833Y-106368380D02*
X172833500Y-105892190D01*
X172595404Y-106368380D02*
X172595404Y-105368380D01*
X172976357Y-105368380D01*
X173071595Y-105416000D01*
X173119214Y-105463619D01*
X173166833Y-105558857D01*
X173166833Y-105701714D01*
X173119214Y-105796952D01*
X173071595Y-105844571D01*
X172976357Y-105892190D01*
X172595404Y-105892190D01*
X174023976Y-105701714D02*
X174023976Y-106368380D01*
X173785880Y-105320761D02*
X173547785Y-106035047D01*
X174166833Y-106035047D01*
X176786333Y-118689380D02*
X176453000Y-118213190D01*
X176214904Y-118689380D02*
X176214904Y-117689380D01*
X176595857Y-117689380D01*
X176691095Y-117737000D01*
X176738714Y-117784619D01*
X176786333Y-117879857D01*
X176786333Y-118022714D01*
X176738714Y-118117952D01*
X176691095Y-118165571D01*
X176595857Y-118213190D01*
X176214904Y-118213190D01*
X177119666Y-117689380D02*
X177738714Y-117689380D01*
X177405380Y-118070333D01*
X177548238Y-118070333D01*
X177643476Y-118117952D01*
X177691095Y-118165571D01*
X177738714Y-118260809D01*
X177738714Y-118498904D01*
X177691095Y-118594142D01*
X177643476Y-118641761D01*
X177548238Y-118689380D01*
X177262523Y-118689380D01*
X177167285Y-118641761D01*
X177119666Y-118594142D01*
X172995833Y-100379880D02*
X172662500Y-99903690D01*
X172424404Y-100379880D02*
X172424404Y-99379880D01*
X172805357Y-99379880D01*
X172900595Y-99427500D01*
X172948214Y-99475119D01*
X172995833Y-99570357D01*
X172995833Y-99713214D01*
X172948214Y-99808452D01*
X172900595Y-99856071D01*
X172805357Y-99903690D01*
X172424404Y-99903690D01*
X173376785Y-99475119D02*
X173424404Y-99427500D01*
X173519642Y-99379880D01*
X173757738Y-99379880D01*
X173852976Y-99427500D01*
X173900595Y-99475119D01*
X173948214Y-99570357D01*
X173948214Y-99665595D01*
X173900595Y-99808452D01*
X173329166Y-100379880D01*
X173948214Y-100379880D01*
X185104833Y-76967880D02*
X184771500Y-76491690D01*
X184533404Y-76967880D02*
X184533404Y-75967880D01*
X184914357Y-75967880D01*
X185009595Y-76015500D01*
X185057214Y-76063119D01*
X185104833Y-76158357D01*
X185104833Y-76301214D01*
X185057214Y-76396452D01*
X185009595Y-76444071D01*
X184914357Y-76491690D01*
X184533404Y-76491690D01*
X186057214Y-76967880D02*
X185485785Y-76967880D01*
X185771500Y-76967880D02*
X185771500Y-75967880D01*
X185676261Y-76110738D01*
X185581023Y-76205976D01*
X185485785Y-76253595D01*
X172664785Y-82295380D02*
X172188595Y-82295380D01*
X172188595Y-81295380D01*
X172998119Y-82295380D02*
X172998119Y-81295380D01*
X173236214Y-81295380D01*
X173379071Y-81343000D01*
X173474309Y-81438238D01*
X173521928Y-81533476D01*
X173569547Y-81723952D01*
X173569547Y-81866809D01*
X173521928Y-82057285D01*
X173474309Y-82152523D01*
X173379071Y-82247761D01*
X173236214Y-82295380D01*
X172998119Y-82295380D01*
X174188595Y-81295380D02*
X174379071Y-81295380D01*
X174474309Y-81343000D01*
X174569547Y-81438238D01*
X174617166Y-81628714D01*
X174617166Y-81962047D01*
X174569547Y-82152523D01*
X174474309Y-82247761D01*
X174379071Y-82295380D01*
X174188595Y-82295380D01*
X174093357Y-82247761D01*
X173998119Y-82152523D01*
X173950500Y-81962047D01*
X173950500Y-81628714D01*
X173998119Y-81438238D01*
X174093357Y-81343000D01*
X174188595Y-81295380D01*
X174902880Y-81628714D02*
X175283833Y-81628714D01*
X175045738Y-81295380D02*
X175045738Y-82152523D01*
X175093357Y-82247761D01*
X175188595Y-82295380D01*
X175283833Y-82295380D01*
X175760023Y-82295380D02*
X175664785Y-82247761D01*
X175617166Y-82200142D01*
X175569547Y-82104904D01*
X175569547Y-81819190D01*
X175617166Y-81723952D01*
X175664785Y-81676333D01*
X175760023Y-81628714D01*
X175902880Y-81628714D01*
X175998119Y-81676333D01*
X176045738Y-81723952D01*
X176093357Y-81819190D01*
X176093357Y-82104904D01*
X176045738Y-82200142D01*
X175998119Y-82247761D01*
X175902880Y-82295380D01*
X175760023Y-82295380D01*
X176426690Y-81295380D02*
X177045738Y-81295380D01*
X176712404Y-81676333D01*
X176855261Y-81676333D01*
X176950500Y-81723952D01*
X176998119Y-81771571D01*
X177045738Y-81866809D01*
X177045738Y-82104904D01*
X176998119Y-82200142D01*
X176950500Y-82247761D01*
X176855261Y-82295380D01*
X176569547Y-82295380D01*
X176474309Y-82247761D01*
X176426690Y-82200142D01*
X177379071Y-81628714D02*
X177617166Y-82295380D01*
X177855261Y-81628714D01*
X178140976Y-81295380D02*
X178760023Y-81295380D01*
X178426690Y-81676333D01*
X178569547Y-81676333D01*
X178664785Y-81723952D01*
X178712404Y-81771571D01*
X178760023Y-81866809D01*
X178760023Y-82104904D01*
X178712404Y-82200142D01*
X178664785Y-82247761D01*
X178569547Y-82295380D01*
X178283833Y-82295380D01*
X178188595Y-82247761D01*
X178140976Y-82200142D01*
X194616695Y-79432471D02*
X194950028Y-79432471D01*
X195092885Y-79956280D02*
X194616695Y-79956280D01*
X194616695Y-78956280D01*
X195092885Y-78956280D01*
X195521457Y-79289614D02*
X195521457Y-79956280D01*
X195521457Y-79384852D02*
X195569076Y-79337233D01*
X195664314Y-79289614D01*
X195807171Y-79289614D01*
X195902409Y-79337233D01*
X195950028Y-79432471D01*
X195950028Y-79956280D01*
X196854790Y-79956280D02*
X196854790Y-79432471D01*
X196807171Y-79337233D01*
X196711933Y-79289614D01*
X196521457Y-79289614D01*
X196426219Y-79337233D01*
X196854790Y-79908661D02*
X196759552Y-79956280D01*
X196521457Y-79956280D01*
X196426219Y-79908661D01*
X196378600Y-79813423D01*
X196378600Y-79718185D01*
X196426219Y-79622947D01*
X196521457Y-79575328D01*
X196759552Y-79575328D01*
X196854790Y-79527709D01*
X197330980Y-79956280D02*
X197330980Y-78956280D01*
X197330980Y-79337233D02*
X197426219Y-79289614D01*
X197616695Y-79289614D01*
X197711933Y-79337233D01*
X197759552Y-79384852D01*
X197807171Y-79480090D01*
X197807171Y-79765804D01*
X197759552Y-79861042D01*
X197711933Y-79908661D01*
X197616695Y-79956280D01*
X197426219Y-79956280D01*
X197330980Y-79908661D01*
X198378600Y-79956280D02*
X198283361Y-79908661D01*
X198235742Y-79813423D01*
X198235742Y-78956280D01*
X199140504Y-79908661D02*
X199045266Y-79956280D01*
X198854790Y-79956280D01*
X198759552Y-79908661D01*
X198711933Y-79813423D01*
X198711933Y-79432471D01*
X198759552Y-79337233D01*
X198854790Y-79289614D01*
X199045266Y-79289614D01*
X199140504Y-79337233D01*
X199188123Y-79432471D01*
X199188123Y-79527709D01*
X198711933Y-79622947D01*
X174085833Y-91987642D02*
X174038214Y-92035261D01*
X173895357Y-92082880D01*
X173800119Y-92082880D01*
X173657261Y-92035261D01*
X173562023Y-91940023D01*
X173514404Y-91844785D01*
X173466785Y-91654309D01*
X173466785Y-91511452D01*
X173514404Y-91320976D01*
X173562023Y-91225738D01*
X173657261Y-91130500D01*
X173800119Y-91082880D01*
X173895357Y-91082880D01*
X174038214Y-91130500D01*
X174085833Y-91178119D01*
X174942976Y-91416214D02*
X174942976Y-92082880D01*
X174704880Y-91035261D02*
X174466785Y-91749547D01*
X175085833Y-91749547D01*
X176920333Y-84232142D02*
X176872714Y-84279761D01*
X176729857Y-84327380D01*
X176634619Y-84327380D01*
X176491761Y-84279761D01*
X176396523Y-84184523D01*
X176348904Y-84089285D01*
X176301285Y-83898809D01*
X176301285Y-83755952D01*
X176348904Y-83565476D01*
X176396523Y-83470238D01*
X176491761Y-83375000D01*
X176634619Y-83327380D01*
X176729857Y-83327380D01*
X176872714Y-83375000D01*
X176920333Y-83422619D01*
X177301285Y-83422619D02*
X177348904Y-83375000D01*
X177444142Y-83327380D01*
X177682238Y-83327380D01*
X177777476Y-83375000D01*
X177825095Y-83422619D01*
X177872714Y-83517857D01*
X177872714Y-83613095D01*
X177825095Y-83755952D01*
X177253666Y-84327380D01*
X177872714Y-84327380D01*
X168988833Y-118594142D02*
X168941214Y-118641761D01*
X168798357Y-118689380D01*
X168703119Y-118689380D01*
X168560261Y-118641761D01*
X168465023Y-118546523D01*
X168417404Y-118451285D01*
X168369785Y-118260809D01*
X168369785Y-118117952D01*
X168417404Y-117927476D01*
X168465023Y-117832238D01*
X168560261Y-117737000D01*
X168703119Y-117689380D01*
X168798357Y-117689380D01*
X168941214Y-117737000D01*
X168988833Y-117784619D01*
X169941214Y-118689380D02*
X169369785Y-118689380D01*
X169655500Y-118689380D02*
X169655500Y-117689380D01*
X169560261Y-117832238D01*
X169465023Y-117927476D01*
X169369785Y-117975095D01*
X181729071Y-95353047D02*
X181776690Y-95210190D01*
X181824309Y-95162571D01*
X181919547Y-95114952D01*
X182062404Y-95114952D01*
X182157642Y-95162571D01*
X182205261Y-95210190D01*
X182252880Y-95305428D01*
X182252880Y-95686380D01*
X181252880Y-95686380D01*
X181252880Y-95353047D01*
X181300500Y-95257809D01*
X181348119Y-95210190D01*
X181443357Y-95162571D01*
X181538595Y-95162571D01*
X181633833Y-95210190D01*
X181681452Y-95257809D01*
X181729071Y-95353047D01*
X181729071Y-95686380D01*
X182252880Y-94543523D02*
X182205261Y-94638761D01*
X182157642Y-94686380D01*
X182062404Y-94734000D01*
X181776690Y-94734000D01*
X181681452Y-94686380D01*
X181633833Y-94638761D01*
X181586214Y-94543523D01*
X181586214Y-94400666D01*
X181633833Y-94305428D01*
X181681452Y-94257809D01*
X181776690Y-94210190D01*
X182062404Y-94210190D01*
X182157642Y-94257809D01*
X182205261Y-94305428D01*
X182252880Y-94400666D01*
X182252880Y-94543523D01*
X182252880Y-93638761D02*
X182205261Y-93734000D01*
X182157642Y-93781619D01*
X182062404Y-93829238D01*
X181776690Y-93829238D01*
X181681452Y-93781619D01*
X181633833Y-93734000D01*
X181586214Y-93638761D01*
X181586214Y-93495904D01*
X181633833Y-93400666D01*
X181681452Y-93353047D01*
X181776690Y-93305428D01*
X182062404Y-93305428D01*
X182157642Y-93353047D01*
X182205261Y-93400666D01*
X182252880Y-93495904D01*
X182252880Y-93638761D01*
X181586214Y-93019714D02*
X181586214Y-92638761D01*
X181252880Y-92876857D02*
X182110023Y-92876857D01*
X182205261Y-92829238D01*
X182252880Y-92734000D01*
X182252880Y-92638761D01*
M02*
