G04 #@! TF.GenerationSoftware,KiCad,Pcbnew,(5.1.7)-1*
G04 #@! TF.CreationDate,2021-04-15T13:32:14+02:00*
G04 #@! TF.ProjectId,TestPCB,54657374-5043-4422-9e6b-696361645f70,rev?*
G04 #@! TF.SameCoordinates,Original*
G04 #@! TF.FileFunction,Paste,Top*
G04 #@! TF.FilePolarity,Positive*
%FSLAX46Y46*%
G04 Gerber Fmt 4.6, Leading zero omitted, Abs format (unit mm)*
G04 Created by KiCad (PCBNEW (5.1.7)-1) date 2021-04-15 13:32:14*
%MOMM*%
%LPD*%
G01*
G04 APERTURE LIST*
%ADD10C,0.000100*%
%ADD11R,0.900000X2.000000*%
%ADD12R,2.000000X0.900000*%
%ADD13R,0.900000X0.800000*%
%ADD14R,1.500000X1.900000*%
%ADD15R,0.400000X1.350000*%
%ADD16R,2.000000X1.500000*%
%ADD17R,2.000000X3.800000*%
%ADD18R,2.300000X1.500000*%
%ADD19R,1.500000X2.300000*%
G04 APERTURE END LIST*
D10*
G36*
X180665000Y-69593500D02*
G01*
X179465000Y-69593500D01*
X179465000Y-67693500D01*
X180665000Y-67693500D01*
X180689860Y-67694151D01*
X180714650Y-67696102D01*
X180739310Y-67699348D01*
X180763760Y-67703880D01*
X180787940Y-67709685D01*
X180811780Y-67716748D01*
X180835220Y-67725049D01*
X180858200Y-67734566D01*
X180880650Y-67745272D01*
X180902500Y-67757138D01*
X180923700Y-67770131D01*
X180944200Y-67784217D01*
X180963930Y-67799356D01*
X180982840Y-67815506D01*
X181000880Y-67832624D01*
X181017990Y-67850663D01*
X181034140Y-67869573D01*
X181049280Y-67889302D01*
X181063370Y-67909796D01*
X181076360Y-67931000D01*
X181088230Y-67952855D01*
X181098930Y-67975300D01*
X181108450Y-67998275D01*
X181116750Y-68021717D01*
X181123810Y-68045561D01*
X181129620Y-68069742D01*
X181134150Y-68094194D01*
X181137400Y-68118849D01*
X181139350Y-68143640D01*
X181140000Y-68168500D01*
X181140000Y-69118500D01*
X181139350Y-69143360D01*
X181137400Y-69168151D01*
X181134150Y-69192806D01*
X181129620Y-69217258D01*
X181123810Y-69241439D01*
X181116750Y-69265283D01*
X181108450Y-69288725D01*
X181098930Y-69311700D01*
X181088230Y-69334145D01*
X181076360Y-69356000D01*
X181063370Y-69377204D01*
X181049280Y-69397698D01*
X181034140Y-69417427D01*
X181017990Y-69436337D01*
X181000880Y-69454376D01*
X180982840Y-69471494D01*
X180963930Y-69487644D01*
X180944200Y-69502783D01*
X180923700Y-69516869D01*
X180902500Y-69529862D01*
X180880650Y-69541728D01*
X180858200Y-69552434D01*
X180835220Y-69561951D01*
X180811780Y-69570252D01*
X180787940Y-69577315D01*
X180763760Y-69583120D01*
X180739310Y-69587652D01*
X180714650Y-69590898D01*
X180689860Y-69592849D01*
X180665000Y-69593500D01*
G37*
X180665000Y-69593500D02*
X179465000Y-69593500D01*
X179465000Y-67693500D01*
X180665000Y-67693500D01*
X180689860Y-67694151D01*
X180714650Y-67696102D01*
X180739310Y-67699348D01*
X180763760Y-67703880D01*
X180787940Y-67709685D01*
X180811780Y-67716748D01*
X180835220Y-67725049D01*
X180858200Y-67734566D01*
X180880650Y-67745272D01*
X180902500Y-67757138D01*
X180923700Y-67770131D01*
X180944200Y-67784217D01*
X180963930Y-67799356D01*
X180982840Y-67815506D01*
X181000880Y-67832624D01*
X181017990Y-67850663D01*
X181034140Y-67869573D01*
X181049280Y-67889302D01*
X181063370Y-67909796D01*
X181076360Y-67931000D01*
X181088230Y-67952855D01*
X181098930Y-67975300D01*
X181108450Y-67998275D01*
X181116750Y-68021717D01*
X181123810Y-68045561D01*
X181129620Y-68069742D01*
X181134150Y-68094194D01*
X181137400Y-68118849D01*
X181139350Y-68143640D01*
X181140000Y-68168500D01*
X181140000Y-69118500D01*
X181139350Y-69143360D01*
X181137400Y-69168151D01*
X181134150Y-69192806D01*
X181129620Y-69217258D01*
X181123810Y-69241439D01*
X181116750Y-69265283D01*
X181108450Y-69288725D01*
X181098930Y-69311700D01*
X181088230Y-69334145D01*
X181076360Y-69356000D01*
X181063370Y-69377204D01*
X181049280Y-69397698D01*
X181034140Y-69417427D01*
X181017990Y-69436337D01*
X181000880Y-69454376D01*
X180982840Y-69471494D01*
X180963930Y-69487644D01*
X180944200Y-69502783D01*
X180923700Y-69516869D01*
X180902500Y-69529862D01*
X180880650Y-69541728D01*
X180858200Y-69552434D01*
X180835220Y-69561951D01*
X180811780Y-69570252D01*
X180787940Y-69577315D01*
X180763760Y-69583120D01*
X180739310Y-69587652D01*
X180714650Y-69590898D01*
X180689860Y-69592849D01*
X180665000Y-69593500D01*
G36*
X173665000Y-69593500D02*
G01*
X174865000Y-69593500D01*
X174865000Y-67693500D01*
X173665000Y-67693500D01*
X173640140Y-67694151D01*
X173615350Y-67696102D01*
X173590690Y-67699348D01*
X173566240Y-67703880D01*
X173542060Y-67709685D01*
X173518220Y-67716748D01*
X173494780Y-67725049D01*
X173471800Y-67734566D01*
X173449350Y-67745272D01*
X173427500Y-67757138D01*
X173406300Y-67770131D01*
X173385800Y-67784217D01*
X173366070Y-67799356D01*
X173347160Y-67815506D01*
X173329120Y-67832624D01*
X173312010Y-67850663D01*
X173295860Y-67869573D01*
X173280720Y-67889302D01*
X173266630Y-67909796D01*
X173253640Y-67931000D01*
X173241770Y-67952855D01*
X173231070Y-67975300D01*
X173221550Y-67998275D01*
X173213250Y-68021717D01*
X173206190Y-68045561D01*
X173200380Y-68069742D01*
X173195850Y-68094194D01*
X173192600Y-68118849D01*
X173190650Y-68143640D01*
X173190000Y-68168500D01*
X173190000Y-69118500D01*
X173190650Y-69143360D01*
X173192600Y-69168151D01*
X173195850Y-69192806D01*
X173200380Y-69217258D01*
X173206190Y-69241439D01*
X173213250Y-69265283D01*
X173221550Y-69288725D01*
X173231070Y-69311700D01*
X173241770Y-69334145D01*
X173253640Y-69356000D01*
X173266630Y-69377204D01*
X173280720Y-69397698D01*
X173295860Y-69417427D01*
X173312010Y-69436337D01*
X173329120Y-69454376D01*
X173347160Y-69471494D01*
X173366070Y-69487644D01*
X173385800Y-69502783D01*
X173406300Y-69516869D01*
X173427500Y-69529862D01*
X173449350Y-69541728D01*
X173471800Y-69552434D01*
X173494780Y-69561951D01*
X173518220Y-69570252D01*
X173542060Y-69577315D01*
X173566240Y-69583120D01*
X173590690Y-69587652D01*
X173615350Y-69590898D01*
X173640140Y-69592849D01*
X173665000Y-69593500D01*
G37*
X173665000Y-69593500D02*
X174865000Y-69593500D01*
X174865000Y-67693500D01*
X173665000Y-67693500D01*
X173640140Y-67694151D01*
X173615350Y-67696102D01*
X173590690Y-67699348D01*
X173566240Y-67703880D01*
X173542060Y-67709685D01*
X173518220Y-67716748D01*
X173494780Y-67725049D01*
X173471800Y-67734566D01*
X173449350Y-67745272D01*
X173427500Y-67757138D01*
X173406300Y-67770131D01*
X173385800Y-67784217D01*
X173366070Y-67799356D01*
X173347160Y-67815506D01*
X173329120Y-67832624D01*
X173312010Y-67850663D01*
X173295860Y-67869573D01*
X173280720Y-67889302D01*
X173266630Y-67909796D01*
X173253640Y-67931000D01*
X173241770Y-67952855D01*
X173231070Y-67975300D01*
X173221550Y-67998275D01*
X173213250Y-68021717D01*
X173206190Y-68045561D01*
X173200380Y-68069742D01*
X173195850Y-68094194D01*
X173192600Y-68118849D01*
X173190650Y-68143640D01*
X173190000Y-68168500D01*
X173190000Y-69118500D01*
X173190650Y-69143360D01*
X173192600Y-69168151D01*
X173195850Y-69192806D01*
X173200380Y-69217258D01*
X173206190Y-69241439D01*
X173213250Y-69265283D01*
X173221550Y-69288725D01*
X173231070Y-69311700D01*
X173241770Y-69334145D01*
X173253640Y-69356000D01*
X173266630Y-69377204D01*
X173280720Y-69397698D01*
X173295860Y-69417427D01*
X173312010Y-69436337D01*
X173329120Y-69454376D01*
X173347160Y-69471494D01*
X173366070Y-69487644D01*
X173385800Y-69502783D01*
X173406300Y-69516869D01*
X173427500Y-69529862D01*
X173449350Y-69541728D01*
X173471800Y-69552434D01*
X173494780Y-69561951D01*
X173518220Y-69570252D01*
X173542060Y-69577315D01*
X173566240Y-69583120D01*
X173590690Y-69587652D01*
X173615350Y-69590898D01*
X173640140Y-69592849D01*
X173665000Y-69593500D01*
D11*
X202518000Y-99372500D03*
X201248000Y-99372500D03*
X199978000Y-99372500D03*
X198708000Y-99372500D03*
X197438000Y-99372500D03*
X196168000Y-99372500D03*
X194898000Y-99372500D03*
X193628000Y-99372500D03*
X192358000Y-99372500D03*
X191088000Y-99372500D03*
X189818000Y-99372500D03*
X188548000Y-99372500D03*
X187278000Y-99372500D03*
X186008000Y-99372500D03*
D12*
X185008000Y-96587500D03*
X185008000Y-95317500D03*
X185008000Y-94047500D03*
X185008000Y-92777500D03*
X185008000Y-91507500D03*
X185008000Y-90237500D03*
X185008000Y-88967500D03*
X185008000Y-87697500D03*
X185008000Y-86427500D03*
X185008000Y-85157500D03*
D11*
X186008000Y-82372500D03*
X187278000Y-82372500D03*
X188548000Y-82372500D03*
X189818000Y-82372500D03*
X191088000Y-82372500D03*
X192358000Y-82372500D03*
X193628000Y-82372500D03*
X194898000Y-82372500D03*
X196168000Y-82372500D03*
X197438000Y-82372500D03*
X198708000Y-82372500D03*
X199978000Y-82372500D03*
X201248000Y-82372500D03*
X202518000Y-82372500D03*
D13*
X183245000Y-103378000D03*
X183248300Y-105283000D03*
X181145000Y-104330500D03*
X195115000Y-117983000D03*
X197215000Y-118948200D03*
X197215000Y-117017800D03*
D14*
X178165000Y-68643500D03*
X176165000Y-68643500D03*
D15*
X178465000Y-71318500D03*
X177815000Y-71318500D03*
X177165000Y-71318500D03*
X176515000Y-71318500D03*
X175865000Y-71318500D03*
G36*
G01*
X188262499Y-77784000D02*
X189562501Y-77784000D01*
G75*
G02*
X189812500Y-78033999I0J-249999D01*
G01*
X189812500Y-78684001D01*
G75*
G02*
X189562501Y-78934000I-249999J0D01*
G01*
X188262499Y-78934000D01*
G75*
G02*
X188012500Y-78684001I0J249999D01*
G01*
X188012500Y-78033999D01*
G75*
G02*
X188262499Y-77784000I249999J0D01*
G01*
G37*
G36*
G01*
X188262499Y-74834000D02*
X189562501Y-74834000D01*
G75*
G02*
X189812500Y-75083999I0J-249999D01*
G01*
X189812500Y-75734001D01*
G75*
G02*
X189562501Y-75984000I-249999J0D01*
G01*
X188262499Y-75984000D01*
G75*
G02*
X188012500Y-75734001I0J249999D01*
G01*
X188012500Y-75083999D01*
G75*
G02*
X188262499Y-74834000I249999J0D01*
G01*
G37*
G36*
G01*
X167713497Y-82305000D02*
X168963503Y-82305000D01*
G75*
G02*
X169213500Y-82554997I0J-249997D01*
G01*
X169213500Y-83180003D01*
G75*
G02*
X168963503Y-83430000I-249997J0D01*
G01*
X167713497Y-83430000D01*
G75*
G02*
X167463500Y-83180003I0J249997D01*
G01*
X167463500Y-82554997D01*
G75*
G02*
X167713497Y-82305000I249997J0D01*
G01*
G37*
G36*
G01*
X167713497Y-79380000D02*
X168963503Y-79380000D01*
G75*
G02*
X169213500Y-79629997I0J-249997D01*
G01*
X169213500Y-80255003D01*
G75*
G02*
X168963503Y-80505000I-249997J0D01*
G01*
X167713497Y-80505000D01*
G75*
G02*
X167463500Y-80255003I0J249997D01*
G01*
X167463500Y-79629997D01*
G75*
G02*
X167713497Y-79380000I249997J0D01*
G01*
G37*
G36*
G01*
X176456503Y-105018000D02*
X175206497Y-105018000D01*
G75*
G02*
X174956500Y-104768003I0J249997D01*
G01*
X174956500Y-104142997D01*
G75*
G02*
X175206497Y-103893000I249997J0D01*
G01*
X176456503Y-103893000D01*
G75*
G02*
X176706500Y-104142997I0J-249997D01*
G01*
X176706500Y-104768003D01*
G75*
G02*
X176456503Y-105018000I-249997J0D01*
G01*
G37*
G36*
G01*
X176456503Y-107943000D02*
X175206497Y-107943000D01*
G75*
G02*
X174956500Y-107693003I0J249997D01*
G01*
X174956500Y-107067997D01*
G75*
G02*
X175206497Y-106818000I249997J0D01*
G01*
X176456503Y-106818000D01*
G75*
G02*
X176706500Y-107067997I0J-249997D01*
G01*
X176706500Y-107693003D01*
G75*
G02*
X176456503Y-107943000I-249997J0D01*
G01*
G37*
G36*
G01*
X187588997Y-118500000D02*
X188839003Y-118500000D01*
G75*
G02*
X189089000Y-118749997I0J-249997D01*
G01*
X189089000Y-119375003D01*
G75*
G02*
X188839003Y-119625000I-249997J0D01*
G01*
X187588997Y-119625000D01*
G75*
G02*
X187339000Y-119375003I0J249997D01*
G01*
X187339000Y-118749997D01*
G75*
G02*
X187588997Y-118500000I249997J0D01*
G01*
G37*
G36*
G01*
X187588997Y-115575000D02*
X188839003Y-115575000D01*
G75*
G02*
X189089000Y-115824997I0J-249997D01*
G01*
X189089000Y-116450003D01*
G75*
G02*
X188839003Y-116700000I-249997J0D01*
G01*
X187588997Y-116700000D01*
G75*
G02*
X187339000Y-116450003I0J249997D01*
G01*
X187339000Y-115824997D01*
G75*
G02*
X187588997Y-115575000I249997J0D01*
G01*
G37*
G36*
G01*
X179841997Y-119012000D02*
X181092003Y-119012000D01*
G75*
G02*
X181342000Y-119261997I0J-249997D01*
G01*
X181342000Y-119887003D01*
G75*
G02*
X181092003Y-120137000I-249997J0D01*
G01*
X179841997Y-120137000D01*
G75*
G02*
X179592000Y-119887003I0J249997D01*
G01*
X179592000Y-119261997D01*
G75*
G02*
X179841997Y-119012000I249997J0D01*
G01*
G37*
G36*
G01*
X179841997Y-116087000D02*
X181092003Y-116087000D01*
G75*
G02*
X181342000Y-116336997I0J-249997D01*
G01*
X181342000Y-116962003D01*
G75*
G02*
X181092003Y-117212000I-249997J0D01*
G01*
X179841997Y-117212000D01*
G75*
G02*
X179592000Y-116962003I0J249997D01*
G01*
X179592000Y-116336997D01*
G75*
G02*
X179841997Y-116087000I249997J0D01*
G01*
G37*
G36*
G01*
X170888497Y-106816000D02*
X172138503Y-106816000D01*
G75*
G02*
X172388500Y-107065997I0J-249997D01*
G01*
X172388500Y-107691003D01*
G75*
G02*
X172138503Y-107941000I-249997J0D01*
G01*
X170888497Y-107941000D01*
G75*
G02*
X170638500Y-107691003I0J249997D01*
G01*
X170638500Y-107065997D01*
G75*
G02*
X170888497Y-106816000I249997J0D01*
G01*
G37*
G36*
G01*
X170888497Y-103891000D02*
X172138503Y-103891000D01*
G75*
G02*
X172388500Y-104140997I0J-249997D01*
G01*
X172388500Y-104766003D01*
G75*
G02*
X172138503Y-105016000I-249997J0D01*
G01*
X170888497Y-105016000D01*
G75*
G02*
X170638500Y-104766003I0J249997D01*
G01*
X170638500Y-104140997D01*
G75*
G02*
X170888497Y-103891000I249997J0D01*
G01*
G37*
G36*
G01*
X174507997Y-119137000D02*
X175758003Y-119137000D01*
G75*
G02*
X176008000Y-119386997I0J-249997D01*
G01*
X176008000Y-120012003D01*
G75*
G02*
X175758003Y-120262000I-249997J0D01*
G01*
X174507997Y-120262000D01*
G75*
G02*
X174258000Y-120012003I0J249997D01*
G01*
X174258000Y-119386997D01*
G75*
G02*
X174507997Y-119137000I249997J0D01*
G01*
G37*
G36*
G01*
X174507997Y-116212000D02*
X175758003Y-116212000D01*
G75*
G02*
X176008000Y-116461997I0J-249997D01*
G01*
X176008000Y-117087003D01*
G75*
G02*
X175758003Y-117337000I-249997J0D01*
G01*
X174507997Y-117337000D01*
G75*
G02*
X174258000Y-117087003I0J249997D01*
G01*
X174258000Y-116461997D01*
G75*
G02*
X174507997Y-116212000I249997J0D01*
G01*
G37*
G36*
G01*
X175187500Y-97482497D02*
X175187500Y-98732503D01*
G75*
G02*
X174937503Y-98982500I-249997J0D01*
G01*
X174312497Y-98982500D01*
G75*
G02*
X174062500Y-98732503I0J249997D01*
G01*
X174062500Y-97482497D01*
G75*
G02*
X174312497Y-97232500I249997J0D01*
G01*
X174937503Y-97232500D01*
G75*
G02*
X175187500Y-97482497I0J-249997D01*
G01*
G37*
G36*
G01*
X172262500Y-97482497D02*
X172262500Y-98732503D01*
G75*
G02*
X172012503Y-98982500I-249997J0D01*
G01*
X171387497Y-98982500D01*
G75*
G02*
X171137500Y-98732503I0J249997D01*
G01*
X171137500Y-97482497D01*
G75*
G02*
X171387497Y-97232500I249997J0D01*
G01*
X172012503Y-97232500D01*
G75*
G02*
X172262500Y-97482497I0J-249997D01*
G01*
G37*
G36*
G01*
X182826497Y-77415500D02*
X184076503Y-77415500D01*
G75*
G02*
X184326500Y-77665497I0J-249997D01*
G01*
X184326500Y-78290503D01*
G75*
G02*
X184076503Y-78540500I-249997J0D01*
G01*
X182826497Y-78540500D01*
G75*
G02*
X182576500Y-78290503I0J249997D01*
G01*
X182576500Y-77665497D01*
G75*
G02*
X182826497Y-77415500I249997J0D01*
G01*
G37*
G36*
G01*
X182826497Y-74490500D02*
X184076503Y-74490500D01*
G75*
G02*
X184326500Y-74740497I0J-249997D01*
G01*
X184326500Y-75365503D01*
G75*
G02*
X184076503Y-75615500I-249997J0D01*
G01*
X182826497Y-75615500D01*
G75*
G02*
X182576500Y-75365503I0J249997D01*
G01*
X182576500Y-74740497D01*
G75*
G02*
X182826497Y-74490500I249997J0D01*
G01*
G37*
D16*
X178600500Y-79643000D03*
X178600500Y-75043000D03*
X178600500Y-77343000D03*
D17*
X172300500Y-77343000D03*
D18*
X200073000Y-76327000D03*
X193373000Y-76327000D03*
G36*
G01*
X171752499Y-92530500D02*
X173052501Y-92530500D01*
G75*
G02*
X173302500Y-92780499I0J-249999D01*
G01*
X173302500Y-93430501D01*
G75*
G02*
X173052501Y-93680500I-249999J0D01*
G01*
X171752499Y-93680500D01*
G75*
G02*
X171502500Y-93430501I0J249999D01*
G01*
X171502500Y-92780499D01*
G75*
G02*
X171752499Y-92530500I249999J0D01*
G01*
G37*
G36*
G01*
X171752499Y-89580500D02*
X173052501Y-89580500D01*
G75*
G02*
X173302500Y-89830499I0J-249999D01*
G01*
X173302500Y-90480501D01*
G75*
G02*
X173052501Y-90730500I-249999J0D01*
G01*
X171752499Y-90730500D01*
G75*
G02*
X171502500Y-90480501I0J249999D01*
G01*
X171502500Y-89830499D01*
G75*
G02*
X171752499Y-89580500I249999J0D01*
G01*
G37*
G36*
G01*
X177987000Y-86375001D02*
X177987000Y-85074999D01*
G75*
G02*
X178236999Y-84825000I249999J0D01*
G01*
X178887001Y-84825000D01*
G75*
G02*
X179137000Y-85074999I0J-249999D01*
G01*
X179137000Y-86375001D01*
G75*
G02*
X178887001Y-86625000I-249999J0D01*
G01*
X178236999Y-86625000D01*
G75*
G02*
X177987000Y-86375001I0J249999D01*
G01*
G37*
G36*
G01*
X175037000Y-86375001D02*
X175037000Y-85074999D01*
G75*
G02*
X175286999Y-84825000I249999J0D01*
G01*
X175937001Y-84825000D01*
G75*
G02*
X176187000Y-85074999I0J-249999D01*
G01*
X176187000Y-86375001D01*
G75*
G02*
X175937001Y-86625000I-249999J0D01*
G01*
X175286999Y-86625000D01*
G75*
G02*
X175037000Y-86375001I0J249999D01*
G01*
G37*
G36*
G01*
X171655501Y-117337000D02*
X170355499Y-117337000D01*
G75*
G02*
X170105500Y-117087001I0J249999D01*
G01*
X170105500Y-116436999D01*
G75*
G02*
X170355499Y-116187000I249999J0D01*
G01*
X171655501Y-116187000D01*
G75*
G02*
X171905500Y-116436999I0J-249999D01*
G01*
X171905500Y-117087001D01*
G75*
G02*
X171655501Y-117337000I-249999J0D01*
G01*
G37*
G36*
G01*
X171655501Y-120287000D02*
X170355499Y-120287000D01*
G75*
G02*
X170105500Y-120037001I0J249999D01*
G01*
X170105500Y-119386999D01*
G75*
G02*
X170355499Y-119137000I249999J0D01*
G01*
X171655501Y-119137000D01*
G75*
G02*
X171905500Y-119386999I0J-249999D01*
G01*
X171905500Y-120037001D01*
G75*
G02*
X171655501Y-120287000I-249999J0D01*
G01*
G37*
D19*
X179006500Y-97647500D03*
X179006500Y-90947500D03*
M02*
