G04 #@! TF.GenerationSoftware,KiCad,Pcbnew,(5.1.7)-1*
G04 #@! TF.CreationDate,2021-04-15T13:32:14+02:00*
G04 #@! TF.ProjectId,TestPCB,54657374-5043-4422-9e6b-696361645f70,rev?*
G04 #@! TF.SameCoordinates,Original*
G04 #@! TF.FileFunction,Profile,NP*
%FSLAX46Y46*%
G04 Gerber Fmt 4.6, Leading zero omitted, Abs format (unit mm)*
G04 Created by KiCad (PCBNEW (5.1.7)-1) date 2021-04-15 13:32:14*
%MOMM*%
%LPD*%
G01*
G04 APERTURE LIST*
G04 #@! TA.AperFunction,Profile*
%ADD10C,0.050000*%
G04 #@! TD*
G04 #@! TA.AperFunction,Profile*
%ADD11C,0.100000*%
G04 #@! TD*
G04 APERTURE END LIST*
D10*
X204483239Y-68453427D02*
G75*
G03*
X204483239Y-68453427I-1666666J0D01*
G01*
X200316573Y-68453427D02*
X205316573Y-68453427D01*
X202816573Y-65953427D02*
X202816573Y-70953427D01*
X112445093Y-68453427D02*
G75*
G03*
X112445093Y-68453427I-1666666J0D01*
G01*
X108278427Y-68453427D02*
X113278427Y-68453427D01*
X110778427Y-65953427D02*
X110778427Y-70953427D01*
X204483239Y-124171573D02*
G75*
G03*
X204483239Y-124171573I-1666666J0D01*
G01*
X200316573Y-124171573D02*
X205316573Y-124171573D01*
X202816573Y-121671573D02*
X202816573Y-126671573D01*
X112445093Y-124171573D02*
G75*
G03*
X112445093Y-124171573I-1666666J0D01*
G01*
X108278427Y-124171573D02*
X113278427Y-124171573D01*
X110778427Y-121671573D02*
X110778427Y-126671573D01*
D11*
X205645000Y-65625000D02*
X205645000Y-127000000D01*
X107950000Y-65625000D02*
X205645000Y-65625000D01*
X107950000Y-127000000D02*
X107950000Y-65625000D01*
X205645000Y-127000000D02*
X107950000Y-127000000D01*
X180365000Y-68993500D02*
X180365000Y-68293500D01*
X180965000Y-68293500D02*
X180965000Y-68993500D01*
X173365000Y-68993500D02*
X173365000Y-68293500D01*
X173965000Y-68293500D02*
X173965000Y-68993500D01*
X180965000Y-68993500D02*
G75*
G02*
X180365000Y-68993500I-300000J0D01*
G01*
X180365000Y-68293500D02*
G75*
G02*
X180965000Y-68293500I300000J0D01*
G01*
X173965000Y-68993500D02*
G75*
G02*
X173365000Y-68993500I-300000J0D01*
G01*
X173365000Y-68293500D02*
G75*
G02*
X173965000Y-68293500I300000J0D01*
G01*
M02*
