M48
INCH,TZ
T1C0.0236
T2C0.0315
T3C0.0335
T4C0.0394
%
G90
G05
T1
X68372Y-27025
X71128Y-27025
T2
X57950Y-30775
X65100Y-46600
X65250Y-36600
X66700Y-33600
X70325Y-40950
X70625Y-42925
X71650Y-32625
X72125Y-42500
X72325Y-45000
X72900Y-46300
X73625Y-41575
X75225Y-46875
X77669Y-44969
X78613Y-46863
T3
X68766Y-28088
X70734Y-28088
T4
X44750Y-29002
X44750Y-30002
X44750Y-31002
X44750Y-32002
X44750Y-33002
X44750Y-34002
X44750Y-35002
X44750Y-36002
X44750Y-37002
X44750Y-38002
X44750Y-39600
X44750Y-40600
X44750Y-41600
X44750Y-42600
X44750Y-43600
X44750Y-44600
X44750Y-45600
X44750Y-46600
X63750Y-32600
X63750Y-33600
X63750Y-34600
X63750Y-35600
X63750Y-36600
X63750Y-37600
X63750Y-38600
X63750Y-39600
X63750Y-41600
X63750Y-42600
X63750Y-43600
X63750Y-44600
X63750Y-45600
X63750Y-46600
X74700Y-42900
X75700Y-42900
X76700Y-42900
X77700Y-42900
T0
M30
